# Blender v2.82 (sub 7) OBJ File: 'aids.blend'
# www.blender.org
mtllib 1panel.mtl
o 1panel_Cube.001
v -4.250000 -0.009843 5.500000
v -4.250000 0.009843 5.500000
v -4.250000 -0.009843 -5.500000
v -4.250000 0.009843 -5.500000
v 4.250000 -0.009843 5.500000
v 4.250000 0.009843 5.500000
v 4.250000 -0.009843 -5.500000
v 4.250000 0.009843 -5.500000
vt 0.114391 0.439946
vt 0.129081 0.439946
vt 0.129081 0.454636
vt 0.114391 0.454636
vt 0.129081 0.469326
vt 0.114391 0.469326
vt 0.129081 0.484016
vt 0.114391 0.484016
vt 0.129081 0.498706
vt 0.114391 0.498706
vt 0.999729 0.999856
vt 0.000896 0.999856
vt 0.000896 0.001027
vt 0.999729 0.001027
vt 1.000000 1.000000
vt 0.000000 1.000000
vt 0.000000 0.000000
vt 1.000000 0.000000
vn -1.0000 0.0000 0.0000
vn 0.0000 0.0000 -1.0000
vn 1.0000 0.0000 0.0000
vn 0.0000 0.0000 1.0000
vn 0.0000 -1.0000 0.0000
vn 0.0000 1.0000 0.0000
usemtl Material.001
s off
f 1/1/1 2/2/1 4/3/1 3/4/1
f 3/4/2 4/3/2 8/5/2 7/6/2
f 7/6/3 8/5/3 6/7/3 5/8/3
f 5/8/4 6/7/4 2/9/4 1/10/4
f 3/11/5 7/12/5 5/13/5 1/14/5
f 8/15/6 4/16/6 2/17/6 6/18/6
