# Blender v2.82 (sub 7) OBJ File: 'countersheet2.blend'
# www.blender.org
mtllib Curve_099.mtl
o Curve.099_Curve.702
v -0.312490 -0.019685 -0.312424
v 0.312490 -0.019685 -0.312424
v 0.312490 -0.019685 0.312425
v -0.312490 -0.019685 0.312425
v -0.312490 0.019685 -0.312424
v -0.312490 0.019685 0.312425
v 0.312490 0.019685 -0.312424
v 0.312490 0.019685 0.312425
vt 0.369448 0.779499
vt 0.341104 0.779499
vt 0.341104 0.706149
vt 0.369448 0.706149
vt -0.000293 0.001449
vt 0.333138 0.001449
vt 0.333138 0.001449
vt -0.000293 0.001449
vt 0.625932 0.779209
vt 0.625932 0.705826
vt 0.654289 0.705826
vt 0.654289 0.779209
vt 0.666569 0.001449
vt 0.333138 0.001449
vt 0.333138 0.001449
vt 0.666569 0.001449
vt 0.666569 0.001449
vt 1.000000 0.001449
vt 1.000000 0.001449
vt 0.666569 0.001449
vn 0.0000 1.0000 0.0000
vn 0.0000 0.0000 1.0000
vn 0.0000 -1.0000 0.0000
vn 1.0000 0.0000 0.0000
vn 0.0000 0.0000 -1.0000
vn -1.0000 0.0000 0.0000
usemtl SVGMat.005
s off
f 7/1/1 5/2/1 6/3/1 8/4/1
f 4/5/2 3/6/2 8/7/2 6/8/2
f 2/9/3 3/10/3 4/11/3 1/12/3
f 3/13/4 2/14/4 7/15/4 8/16/4
f 2/17/5 1/18/5 5/19/5 7/20/5
f 1/18/6 4/5/6 6/8/6 5/19/6
