# Blender v2.82 (sub 7) OBJ File: 'countersheet2.blend'
# www.blender.org
mtllib Curve_065.mtl
o Curve.065_Curve.668
v -0.312491 -0.024029 -0.312119
v 0.312490 -0.024059 -0.312119
v 0.312489 -0.015337 0.312669
v -0.312491 -0.015307 0.312669
v -0.312489 0.015337 -0.312669
v -0.312490 0.024059 0.312119
v 0.312491 0.015307 -0.312669
v 0.312491 0.024029 0.312119
vt 0.186807 0.544150
vt 0.158463 0.544150
vt 0.158463 0.470800
vt 0.186807 0.470800
vt 0.666569 0.001449
vt 0.333138 0.001449
vt 0.333138 0.001449
vt 0.666569 0.001449
vt 0.808655 0.543755
vt 0.808655 0.470372
vt 0.837011 0.470372
vt 0.837011 0.543755
vt -0.000293 0.001449
vt 0.333138 0.001449
vt 0.333138 0.001449
vt -0.000293 0.001449
vt -0.000293 0.001449
vt 1.000000 0.001449
vt 1.000000 0.001449
vt -0.000293 0.001449
vn 0.0000 0.9999 -0.0140
vn 1.0000 -0.0000 0.0000
vn -0.0000 -0.9999 0.0140
vn 0.0000 -0.0140 -0.9999
vn -1.0000 0.0000 -0.0000
vn -0.0000 0.0140 0.9999
usemtl SVGMat.005
s off
f 7/1/1 5/2/1 6/3/1 8/4/1
f 3/5/2 2/6/2 7/7/2 8/8/2
f 2/9/3 3/10/3 4/11/3 1/12/3
f 2/13/4 1/14/4 5/15/4 7/16/4
f 1/17/5 4/18/5 6/19/5 5/20/5
f 4/18/6 3/5/6 8/8/6 6/19/6
