# Blender v2.82 (sub 7) OBJ File: 'countersheet2.blend'
# www.blender.org
mtllib Curve_046.mtl
o Curve.046_Curve.649
v -0.312490 -0.019685 -0.312424
v 0.312490 -0.019685 -0.312424
v 0.312490 -0.019685 0.312425
v -0.312490 -0.019685 0.312425
v -0.312490 0.019685 -0.312424
v -0.312490 0.019685 0.312425
v 0.312490 0.019685 -0.312424
v 0.312490 0.019685 0.312425
vt 0.215150 0.941498
vt 0.186807 0.941498
vt 0.186807 0.868148
vt 0.215150 0.868148
vt -0.000293 0.001449
vt 1.000000 0.001449
vt 1.000000 0.001449
vt -0.000293 0.001449
vt 0.780299 0.941280
vt 0.780299 0.867897
vt 0.808655 0.867897
vt 0.808655 0.941280
vt 0.666569 0.001449
vt 1.000000 0.001449
vt 1.000000 0.001449
vt 0.666569 0.001449
vt 0.666569 0.001449
vt 0.333138 0.001449
vt 0.333138 0.001449
vt 0.666569 0.001449
vn 0.0000 1.0000 0.0000
vn -1.0000 0.0000 0.0000
vn 0.0000 -1.0000 0.0000
vn 0.0000 0.0000 1.0000
vn 1.0000 0.0000 0.0000
vn 0.0000 0.0000 -1.0000
usemtl SVGMat.005
s off
f 7/1/1 5/2/1 6/3/1 8/4/1
f 1/5/2 4/6/2 6/7/2 5/8/2
f 2/9/3 3/10/3 4/11/3 1/12/3
f 4/13/4 3/14/4 8/15/4 6/16/4
f 3/17/5 2/18/5 7/19/5 8/20/5
f 2/18/6 1/5/6 5/8/6 7/19/6
