# Blender v2.82 (sub 7) OBJ File: 'countersheet2.blend'
# www.blender.org
mtllib Curve_023.mtl
o Curve.023_Curve.626
v -0.312490 -0.019685 -0.312424
v 0.312490 -0.019685 -0.312424
v 0.312490 -0.019685 0.312425
v -0.312490 -0.019685 0.312425
v -0.312490 0.019685 -0.312424
v -0.312490 0.019685 0.312425
v 0.312490 0.019685 -0.312424
v 0.312490 0.019685 0.312425
vt 0.124663 0.544150
vt 0.096320 0.544150
vt 0.096320 0.470800
vt 0.124663 0.470800
vt 1.000000 0.001449
vt 0.666569 0.001449
vt 0.666569 0.001449
vt 1.000000 0.001449
vt 0.870826 0.543755
vt 0.870826 0.470372
vt 0.899182 0.470372
vt 0.899182 0.543755
vt 0.333138 0.001449
vt 0.333138 0.001449
vt -0.000293 0.001449
vt -0.000293 0.001449
vn 0.0000 1.0000 0.0000
vn 0.0000 0.0000 1.0000
vn 0.0000 -1.0000 0.0000
vn 1.0000 0.0000 0.0000
vn 0.0000 0.0000 -1.0000
vn -1.0000 0.0000 0.0000
usemtl SVGMat.005
s off
f 7/1/1 5/2/1 6/3/1 8/4/1
f 4/5/2 3/6/2 8/7/2 6/8/2
f 2/9/3 3/10/3 4/11/3 1/12/3
f 3/6/4 2/13/4 7/14/4 8/7/4
f 2/13/5 1/15/5 5/16/5 7/14/5
f 1/15/6 4/5/6 6/8/6 5/16/6
