# Blender v2.82 (sub 7) OBJ File: 'countersheet2.blend'
# www.blender.org
mtllib Curve_172.mtl
o Curve.172_Curve.775
v -0.312490 -0.019685 -0.312425
v 0.312490 -0.019685 -0.312425
v 0.312490 -0.019685 0.312424
v -0.312490 -0.019685 0.312424
v -0.312490 0.019685 -0.312425
v -0.312490 0.019685 0.312424
v 0.312490 0.019685 -0.312425
v 0.312490 0.019685 0.312424
vt 0.403096 0.132289
vt 0.374753 0.132289
vt 0.374753 0.058938
vt 0.403096 0.058938
vt -0.000293 0.001449
vt 1.000000 0.001449
vt 1.000000 0.001449
vt -0.000293 0.001449
vt 0.620625 0.058327
vt 0.620625 0.131710
vt 0.592269 0.131710
vt 0.592269 0.058327
vt 0.666569 0.001449
vt 0.666569 0.001449
vt 0.333138 0.001449
vt 0.333138 0.001449
vn 0.0000 1.0000 0.0000
vn -1.0000 0.0000 0.0000
vn 0.0000 -1.0000 0.0000
vn 0.0000 0.0000 1.0000
vn 1.0000 0.0000 0.0000
vn 0.0000 0.0000 -1.0000
usemtl SVGMat.005
s off
f 7/1/1 5/2/1 6/3/1 8/4/1
f 1/5/2 4/6/2 6/7/2 5/8/2
f 2/9/3 3/10/3 4/11/3 1/12/3
f 4/6/4 3/13/4 8/14/4 6/7/4
f 3/13/5 2/15/5 7/16/5 8/14/5
f 2/15/6 1/5/6 5/8/6 7/16/6
