<?xml version="1.0" encoding="UTF-8" standalone="no"?>
<!DOCTYPE svg PUBLIC "-//W3C//DTD SVG 1.1//EN" "http://www.w3.org/Graphics/SVG/1.1/DTD/svg11.dtd">
<svg width="100%" height="100%" viewBox="0 0 1650 2550" version="1.1" xmlns="http://www.w3.org/2000/svg" xmlns:xlink="http://www.w3.org/1999/xlink" xml:space="preserve" xmlns:serif="http://www.serif.com/" style="fill-rule:evenodd;clip-rule:evenodd;stroke-linejoin:round;stroke-miterlimit:2;">
    <g transform="matrix(1,0,0,1,2,-4)">
        <circle cx="245" cy="340" r="150" style="fill:white;fill-opacity:0.55;"/>
    </g>
    <g transform="matrix(1,0,0,1,388,-4)">
        <circle cx="245" cy="340" r="150" style="fill:white;fill-opacity:0.55;"/>
    </g>
    <g transform="matrix(1,0,0,1,772,-4)">
        <circle cx="245" cy="340" r="150" style="fill:white;fill-opacity:0.55;"/>
    </g>
    <g transform="matrix(1,0,0,1,1158,-4)">
        <circle cx="245" cy="340" r="150" style="fill:white;fill-opacity:0.55;"/>
    </g>
    <g transform="matrix(1,0,0,1,2,371)">
        <circle cx="245" cy="340" r="150" style="fill:white;fill-opacity:0.55;"/>
    </g>
    <g transform="matrix(1,0,0,1,388,371)">
        <circle cx="245" cy="340" r="150" style="fill:white;fill-opacity:0.55;"/>
    </g>
    <g transform="matrix(1,0,0,1,772,371)">
        <circle cx="245" cy="340" r="150" style="fill:white;fill-opacity:0.55;"/>
    </g>
    <g transform="matrix(1,0,0,1,1158,371)">
        <circle cx="245" cy="340" r="150" style="fill:white;fill-opacity:0.55;"/>
    </g>
    <g transform="matrix(1,0,0,1,2,746.5)">
        <circle cx="245" cy="340" r="150" style="fill:white;fill-opacity:0.55;"/>
    </g>
    <g transform="matrix(1,0,0,1,388,746.5)">
        <circle cx="245" cy="340" r="150" style="fill:white;fill-opacity:0.55;"/>
    </g>
    <g transform="matrix(1,0,0,1,772,746.5)">
        <circle cx="245" cy="340" r="150" style="fill:white;fill-opacity:0.55;"/>
    </g>
    <g transform="matrix(1,0,0,1,1158,746.5)">
        <circle cx="245" cy="340" r="150" style="fill:white;fill-opacity:0.55;"/>
    </g>
    <g transform="matrix(1,0,0,1,2,1121.5)">
        <circle cx="245" cy="340" r="150" style="fill:white;fill-opacity:0.55;"/>
    </g>
    <g transform="matrix(1,0,0,1,388,1121.5)">
        <circle cx="245" cy="340" r="150" style="fill:white;fill-opacity:0.55;"/>
    </g>
    <g transform="matrix(1,0,0,1,772,1121.5)">
        <circle cx="245" cy="340" r="150" style="fill:white;fill-opacity:0.55;"/>
    </g>
    <g transform="matrix(1,0,0,1,1158,1121.5)">
        <circle cx="245" cy="340" r="150" style="fill:white;fill-opacity:0.55;"/>
    </g>
    <g transform="matrix(1,0,0,0.993377,1.53211e-14,10.6026)">
        <rect x="75" y="1752" width="300" height="302" style="fill:white;fill-opacity:0.5;"/>
    </g>
    <g transform="matrix(1,0,0,0.993377,300,10.6026)">
        <rect x="75" y="1752" width="300" height="302" style="fill:white;fill-opacity:0.5;"/>
    </g>
    <g transform="matrix(1,0,0,0.993377,600,10.6026)">
        <rect x="75" y="1752" width="300" height="302" style="fill:white;fill-opacity:0.5;"/>
    </g>
    <g transform="matrix(1,0,0,0.993377,900,10.6026)">
        <rect x="75" y="1752" width="300" height="302" style="fill:white;fill-opacity:0.5;"/>
    </g>
    <g transform="matrix(1,0,0,0.993377,1200,10.6026)">
        <rect x="75" y="1752" width="300" height="302" style="fill:white;fill-opacity:0.5;"/>
    </g>
    <g transform="matrix(1,0,0,0.993377,1.53211e-14,310.603)">
        <rect x="75" y="1752" width="300" height="302" style="fill:white;fill-opacity:0.5;"/>
    </g>
    <g transform="matrix(1,0,0,0.993377,300,310.603)">
        <rect x="75" y="1752" width="300" height="302" style="fill:white;fill-opacity:0.5;"/>
    </g>
    <g transform="matrix(1,0,0,0.993377,600,310.603)">
        <rect x="75" y="1752" width="300" height="302" style="fill:white;fill-opacity:0.5;"/>
    </g>
    <g transform="matrix(1,0,0,0.993377,900,310.603)">
        <rect x="75" y="1752" width="300" height="302" style="fill:white;fill-opacity:0.5;"/>
    </g>
    <g transform="matrix(1,0,0,0.993377,1200,310.603)">
        <rect x="75" y="1752" width="300" height="302" style="fill:white;fill-opacity:0.5;"/>
    </g>
</svg>
