<?xml version="1.0" encoding="UTF-8" standalone="no"?>
<!DOCTYPE svg PUBLIC "-//W3C//DTD SVG 1.1//EN" "http://www.w3.org/Graphics/SVG/1.1/DTD/svg11.dtd">
<svg width="100%" height="100%" viewBox="0 0 3300 2550" version="1.1" xmlns="http://www.w3.org/2000/svg" xmlns:xlink="http://www.w3.org/1999/xlink" xml:space="preserve" xmlns:serif="http://www.serif.com/" style="fill-rule:evenodd;clip-rule:evenodd;stroke-linejoin:round;stroke-miterlimit:2;">
    <rect x="75" y="150" width="187" height="187" style="fill:white;fill-opacity:0.5;"/>
    <g transform="matrix(1,0,0,1,188,0)">
        <rect x="75" y="150" width="187" height="187" style="fill:white;fill-opacity:0.5;"/>
    </g>
    <g transform="matrix(1,0,0,1,375,0)">
        <rect x="75" y="150" width="187" height="187" style="fill:white;fill-opacity:0.5;"/>
    </g>
    <g transform="matrix(1,0,0,1,563,0)">
        <rect x="75" y="150" width="187" height="187" style="fill:white;fill-opacity:0.5;"/>
    </g>
    <g transform="matrix(1,0,0,1,0,188)">
        <rect x="75" y="150" width="187" height="187" style="fill:white;fill-opacity:0.5;"/>
    </g>
    <g transform="matrix(1,0,0,1,188,188)">
        <rect x="75" y="150" width="187" height="187" style="fill:white;fill-opacity:0.5;"/>
    </g>
    <g transform="matrix(1,0,0,1,375,188)">
        <rect x="75" y="150" width="187" height="187" style="fill:white;fill-opacity:0.5;"/>
    </g>
    <g transform="matrix(1,0,0,1,563,188)">
        <rect x="75" y="150" width="187" height="187" style="fill:white;fill-opacity:0.5;"/>
    </g>
    <g transform="matrix(1,0,0,1,0,413)">
        <rect x="75" y="150" width="187" height="187" style="fill:white;fill-opacity:0.5;"/>
    </g>
    <g transform="matrix(1,0,0,1,188,413)">
        <rect x="75" y="150" width="187" height="187" style="fill:white;fill-opacity:0.5;"/>
    </g>
    <g transform="matrix(1,0,0,1,375,413)">
        <rect x="75" y="150" width="187" height="187" style="fill:white;fill-opacity:0.5;"/>
    </g>
    <g transform="matrix(1,0,0,1,563,413)">
        <rect x="75" y="150" width="187" height="187" style="fill:white;fill-opacity:0.5;"/>
    </g>
    <g transform="matrix(1,0,0,1,0,601)">
        <rect x="75" y="150" width="187" height="187" style="fill:white;fill-opacity:0.5;"/>
    </g>
    <g transform="matrix(1,0,0,1,188,601)">
        <rect x="75" y="150" width="187" height="187" style="fill:white;fill-opacity:0.5;"/>
    </g>
    <g transform="matrix(1,0,0,1,375,601)">
        <rect x="75" y="150" width="187" height="187" style="fill:white;fill-opacity:0.5;"/>
    </g>
    <g transform="matrix(1,0,0,1,563,601)">
        <rect x="75" y="150" width="187" height="187" style="fill:white;fill-opacity:0.5;"/>
    </g>
    <g transform="matrix(1,0,0,1,0,825)">
        <rect x="75" y="150" width="187" height="187" style="fill:white;fill-opacity:0.5;"/>
    </g>
    <g transform="matrix(1,0,0,1,188,825)">
        <rect x="75" y="150" width="187" height="187" style="fill:white;fill-opacity:0.5;"/>
    </g>
    <g transform="matrix(1,0,0,1,375,825)">
        <rect x="75" y="150" width="187" height="187" style="fill:white;fill-opacity:0.5;"/>
    </g>
    <g transform="matrix(1,0,0,1,563,825)">
        <rect x="75" y="150" width="187" height="187" style="fill:white;fill-opacity:0.5;"/>
    </g>
    <g transform="matrix(1,0,0,1,0,1013)">
        <rect x="75" y="150" width="187" height="187" style="fill:white;fill-opacity:0.5;"/>
    </g>
    <g transform="matrix(1,0,0,1,188,1013)">
        <rect x="75" y="150" width="187" height="187" style="fill:white;fill-opacity:0.5;"/>
    </g>
    <g transform="matrix(1,0,0,1,375,1013)">
        <rect x="75" y="150" width="187" height="187" style="fill:white;fill-opacity:0.5;"/>
    </g>
    <g transform="matrix(1,0,0,1,563,1013)">
        <rect x="75" y="150" width="187" height="187" style="fill:white;fill-opacity:0.5;"/>
    </g>
    <g transform="matrix(1,0,0,1,0,1238)">
        <rect x="75" y="150" width="187" height="187" style="fill:white;fill-opacity:0.5;"/>
    </g>
    <g transform="matrix(1,0,0,1,188,1238)">
        <rect x="75" y="150" width="187" height="187" style="fill:white;fill-opacity:0.5;"/>
    </g>
    <g transform="matrix(1,0,0,1,375,1238)">
        <rect x="75" y="150" width="187" height="187" style="fill:white;fill-opacity:0.5;"/>
    </g>
    <g transform="matrix(1,0,0,1,563,1238)">
        <rect x="75" y="150" width="187" height="187" style="fill:white;fill-opacity:0.5;"/>
    </g>
    <g transform="matrix(1,0,0,1,0,1426)">
        <rect x="75" y="150" width="187" height="187" style="fill:white;fill-opacity:0.5;"/>
    </g>
    <g transform="matrix(1,0,0,1,188,1426)">
        <rect x="75" y="150" width="187" height="187" style="fill:white;fill-opacity:0.5;"/>
    </g>
    <g transform="matrix(1,0,0,1,375,1426)">
        <rect x="75" y="150" width="187" height="187" style="fill:white;fill-opacity:0.5;"/>
    </g>
    <g transform="matrix(1,0,0,1,563,1426)">
        <rect x="75" y="150" width="187" height="187" style="fill:white;fill-opacity:0.5;"/>
    </g>
    <g transform="matrix(1,0,0,1,0,1650)">
        <rect x="75" y="150" width="187" height="187" style="fill:white;fill-opacity:0.5;"/>
    </g>
    <g transform="matrix(1,0,0,1,188,1650)">
        <rect x="75" y="150" width="187" height="187" style="fill:white;fill-opacity:0.5;"/>
    </g>
    <g transform="matrix(1,0,0,1,375,1650)">
        <rect x="75" y="150" width="187" height="187" style="fill:white;fill-opacity:0.5;"/>
    </g>
    <g transform="matrix(1,0,0,1,563,1650)">
        <rect x="75" y="150" width="187" height="187" style="fill:white;fill-opacity:0.5;"/>
    </g>
    <g transform="matrix(1,0,0,1,0,1838)">
        <rect x="75" y="150" width="187" height="187" style="fill:white;fill-opacity:0.5;"/>
    </g>
    <g transform="matrix(1,0,0,1,188,1838)">
        <rect x="75" y="150" width="187" height="187" style="fill:white;fill-opacity:0.5;"/>
    </g>
    <g transform="matrix(1,0,0,1,375,1838)">
        <rect x="75" y="150" width="187" height="187" style="fill:white;fill-opacity:0.5;"/>
    </g>
    <g transform="matrix(1,0,0,1,563,1838)">
        <rect x="75" y="150" width="187" height="187" style="fill:white;fill-opacity:0.5;"/>
    </g>
    <g transform="matrix(1,0,0,1,0,2063)">
        <rect x="75" y="150" width="187" height="187" style="fill:white;fill-opacity:0.5;"/>
    </g>
    <g transform="matrix(1,0,0,1,188,2063)">
        <rect x="75" y="150" width="187" height="187" style="fill:white;fill-opacity:0.5;"/>
    </g>
    <g transform="matrix(1,0,0,1,375,2063)">
        <rect x="75" y="150" width="187" height="187" style="fill:white;fill-opacity:0.5;"/>
    </g>
    <g transform="matrix(1,0,0,1,563,2063)">
        <rect x="75" y="150" width="187" height="187" style="fill:white;fill-opacity:0.5;"/>
    </g>
    <g transform="matrix(1,0,0,1,785,0)">
        <rect x="75" y="150" width="187" height="187" style="fill:white;fill-opacity:0.5;"/>
    </g>
    <g transform="matrix(1,0,0,1,973,0)">
        <rect x="75" y="150" width="187" height="187" style="fill:white;fill-opacity:0.5;"/>
    </g>
    <g transform="matrix(1,0,0,1,1160,0)">
        <rect x="75" y="150" width="187" height="187" style="fill:white;fill-opacity:0.5;"/>
    </g>
    <g transform="matrix(1,0,0,1,1348,0)">
        <rect x="75" y="150" width="187" height="187" style="fill:white;fill-opacity:0.5;"/>
    </g>
    <g transform="matrix(1,0,0,1,785,188)">
        <rect x="75" y="150" width="187" height="187" style="fill:white;fill-opacity:0.5;"/>
    </g>
    <g transform="matrix(1,0,0,1,973,188)">
        <rect x="75" y="150" width="187" height="187" style="fill:white;fill-opacity:0.5;"/>
    </g>
    <g transform="matrix(1,0,0,1,1160,188)">
        <rect x="75" y="150" width="187" height="187" style="fill:white;fill-opacity:0.5;"/>
    </g>
    <g transform="matrix(1,0,0,1,1348,188)">
        <rect x="75" y="150" width="187" height="187" style="fill:white;fill-opacity:0.5;"/>
    </g>
    <g transform="matrix(1,0,0,1,785,413)">
        <rect x="75" y="150" width="187" height="187" style="fill:white;fill-opacity:0.5;"/>
    </g>
    <g transform="matrix(1,0,0,1,973,413)">
        <rect x="75" y="150" width="187" height="187" style="fill:white;fill-opacity:0.5;"/>
    </g>
    <g transform="matrix(1,0,0,1,1160,413)">
        <rect x="75" y="150" width="187" height="187" style="fill:white;fill-opacity:0.5;"/>
    </g>
    <g transform="matrix(1,0,0,1,1348,413)">
        <rect x="75" y="150" width="187" height="187" style="fill:white;fill-opacity:0.5;"/>
    </g>
    <g transform="matrix(1,0,0,1,785,601)">
        <rect x="75" y="150" width="187" height="187" style="fill:white;fill-opacity:0.5;"/>
    </g>
    <g transform="matrix(1,0,0,1,973,601)">
        <rect x="75" y="150" width="187" height="187" style="fill:white;fill-opacity:0.5;"/>
    </g>
    <g transform="matrix(1,0,0,1,1160,601)">
        <rect x="75" y="150" width="187" height="187" style="fill:white;fill-opacity:0.5;"/>
    </g>
    <g transform="matrix(1,0,0,1,1348,601)">
        <rect x="75" y="150" width="187" height="187" style="fill:white;fill-opacity:0.5;"/>
    </g>
    <g transform="matrix(1,0,0,1,785,825)">
        <rect x="75" y="150" width="187" height="187" style="fill:white;fill-opacity:0.5;"/>
    </g>
    <g transform="matrix(1,0,0,1,973,825)">
        <rect x="75" y="150" width="187" height="187" style="fill:white;fill-opacity:0.5;"/>
    </g>
    <g transform="matrix(1,0,0,1,1160,825)">
        <rect x="75" y="150" width="187" height="187" style="fill:white;fill-opacity:0.5;"/>
    </g>
    <g transform="matrix(1,0,0,1,1348,825)">
        <rect x="75" y="150" width="187" height="187" style="fill:white;fill-opacity:0.5;"/>
    </g>
    <g transform="matrix(1,0,0,1,785,1013)">
        <rect x="75" y="150" width="187" height="187" style="fill:white;fill-opacity:0.5;"/>
    </g>
    <g transform="matrix(1,0,0,1,973,1013)">
        <rect x="75" y="150" width="187" height="187" style="fill:white;fill-opacity:0.5;"/>
    </g>
    <g transform="matrix(1,0,0,1,1160,1013)">
        <rect x="75" y="150" width="187" height="187" style="fill:white;fill-opacity:0.5;"/>
    </g>
    <g transform="matrix(1,0,0,1,1348,1013)">
        <rect x="75" y="150" width="187" height="187" style="fill:white;fill-opacity:0.5;"/>
    </g>
    <g transform="matrix(1,0,0,1,785,1238)">
        <rect x="75" y="150" width="187" height="187" style="fill:white;fill-opacity:0.5;"/>
    </g>
    <g transform="matrix(1,0,0,1,973,1238)">
        <rect x="75" y="150" width="187" height="187" style="fill:white;fill-opacity:0.5;"/>
    </g>
    <g transform="matrix(1,0,0,1,1160,1238)">
        <rect x="75" y="150" width="187" height="187" style="fill:white;fill-opacity:0.5;"/>
    </g>
    <g transform="matrix(1,0,0,1,1348,1238)">
        <rect x="75" y="150" width="187" height="187" style="fill:white;fill-opacity:0.5;"/>
    </g>
    <g transform="matrix(1,0,0,1,785,1426)">
        <rect x="75" y="150" width="187" height="187" style="fill:white;fill-opacity:0.5;"/>
    </g>
    <g transform="matrix(1,0,0,1,973,1426)">
        <rect x="75" y="150" width="187" height="187" style="fill:white;fill-opacity:0.5;"/>
    </g>
    <g transform="matrix(1,0,0,1,1160,1426)">
        <rect x="75" y="150" width="187" height="187" style="fill:white;fill-opacity:0.5;"/>
    </g>
    <g transform="matrix(1,0,0,1,1348,1426)">
        <rect x="75" y="150" width="187" height="187" style="fill:white;fill-opacity:0.5;"/>
    </g>
    <g transform="matrix(1,0,0,1,785,1650)">
        <rect x="75" y="150" width="187" height="187" style="fill:white;fill-opacity:0.5;"/>
    </g>
    <g transform="matrix(1,0,0,1,973,1650)">
        <rect x="75" y="150" width="187" height="187" style="fill:white;fill-opacity:0.5;"/>
    </g>
    <g transform="matrix(1,0,0,1,1160,1650)">
        <rect x="75" y="150" width="187" height="187" style="fill:white;fill-opacity:0.5;"/>
    </g>
    <g transform="matrix(1,0,0,1,1348,1650)">
        <rect x="75" y="150" width="187" height="187" style="fill:white;fill-opacity:0.5;"/>
    </g>
    <g transform="matrix(1,0,0,1,785,1838)">
        <rect x="75" y="150" width="187" height="187" style="fill:white;fill-opacity:0.5;"/>
    </g>
    <g transform="matrix(1,0,0,1,973,1838)">
        <rect x="75" y="150" width="187" height="187" style="fill:white;fill-opacity:0.5;"/>
    </g>
    <g transform="matrix(1,0,0,1,1160,1838)">
        <rect x="75" y="150" width="187" height="187" style="fill:white;fill-opacity:0.5;"/>
    </g>
    <g transform="matrix(1,0,0,1,1348,1838)">
        <rect x="75" y="150" width="187" height="187" style="fill:white;fill-opacity:0.5;"/>
    </g>
    <g transform="matrix(1,0,0,1,785,2063)">
        <rect x="75" y="150" width="187" height="187" style="fill:white;fill-opacity:0.5;"/>
    </g>
    <g transform="matrix(1,0,0,1,973,2063)">
        <rect x="75" y="150" width="187" height="187" style="fill:white;fill-opacity:0.5;"/>
    </g>
    <g transform="matrix(1,0,0,1,1160,2063)">
        <rect x="75" y="150" width="187" height="187" style="fill:white;fill-opacity:0.5;"/>
    </g>
    <g transform="matrix(1,0,0,1,1348,2063)">
        <rect x="75" y="150" width="187" height="187" style="fill:white;fill-opacity:0.5;"/>
    </g>
    <g transform="matrix(1,0,0,1,1615,0)">
        <rect x="75" y="150" width="187" height="187" style="fill:white;fill-opacity:0.5;"/>
    </g>
    <g transform="matrix(1,0,0,1,1803,0)">
        <rect x="75" y="150" width="187" height="187" style="fill:white;fill-opacity:0.5;"/>
    </g>
    <g transform="matrix(1,0,0,1,1990,0)">
        <rect x="75" y="150" width="187" height="187" style="fill:white;fill-opacity:0.5;"/>
    </g>
    <g transform="matrix(1,0,0,1,2178,0)">
        <rect x="75" y="150" width="187" height="187" style="fill:white;fill-opacity:0.5;"/>
    </g>
    <g transform="matrix(1,0,0,1,1615,188)">
        <rect x="75" y="150" width="187" height="187" style="fill:white;fill-opacity:0.5;"/>
    </g>
    <g transform="matrix(1,0,0,1,1803,188)">
        <rect x="75" y="150" width="187" height="187" style="fill:white;fill-opacity:0.5;"/>
    </g>
    <g transform="matrix(1,0,0,1,1990,188)">
        <rect x="75" y="150" width="187" height="187" style="fill:white;fill-opacity:0.5;"/>
    </g>
    <g transform="matrix(1,0,0,1,2178,188)">
        <rect x="75" y="150" width="187" height="187" style="fill:white;fill-opacity:0.5;"/>
    </g>
    <g transform="matrix(1,0,0,1,1615,413)">
        <rect x="75" y="150" width="187" height="187" style="fill:white;fill-opacity:0.5;"/>
    </g>
    <g transform="matrix(1,0,0,1,1803,413)">
        <rect x="75" y="150" width="187" height="187" style="fill:white;fill-opacity:0.5;"/>
    </g>
    <g transform="matrix(1,0,0,1,1990,413)">
        <rect x="75" y="150" width="187" height="187" style="fill:white;fill-opacity:0.5;"/>
    </g>
    <g transform="matrix(1,0,0,1,2178,413)">
        <rect x="75" y="150" width="187" height="187" style="fill:white;fill-opacity:0.5;"/>
    </g>
    <g transform="matrix(1,0,0,1,1615,601)">
        <rect x="75" y="150" width="187" height="187" style="fill:white;fill-opacity:0.5;"/>
    </g>
    <g transform="matrix(1,0,0,1,1803,601)">
        <rect x="75" y="150" width="187" height="187" style="fill:white;fill-opacity:0.5;"/>
    </g>
    <g transform="matrix(1,0,0,1,1990,601)">
        <rect x="75" y="150" width="187" height="187" style="fill:white;fill-opacity:0.5;"/>
    </g>
    <g transform="matrix(1,0,0,1,2178,601)">
        <rect x="75" y="150" width="187" height="187" style="fill:white;fill-opacity:0.5;"/>
    </g>
    <g transform="matrix(1,0,0,1,1615,825)">
        <rect x="75" y="150" width="187" height="187" style="fill:white;fill-opacity:0.5;"/>
    </g>
    <g transform="matrix(1,0,0,1,1803,825)">
        <rect x="75" y="150" width="187" height="187" style="fill:white;fill-opacity:0.5;"/>
    </g>
    <g transform="matrix(1,0,0,1,1990,825)">
        <rect x="75" y="150" width="187" height="187" style="fill:white;fill-opacity:0.5;"/>
    </g>
    <g transform="matrix(1,0,0,1,2178,825)">
        <rect x="75" y="150" width="187" height="187" style="fill:white;fill-opacity:0.5;"/>
    </g>
    <g transform="matrix(1,0,0,1,1615,1013)">
        <rect x="75" y="150" width="187" height="187" style="fill:white;fill-opacity:0.5;"/>
    </g>
    <g transform="matrix(1,0,0,1,1803,1013)">
        <rect x="75" y="150" width="187" height="187" style="fill:white;fill-opacity:0.5;"/>
    </g>
    <g transform="matrix(1,0,0,1,1990,1013)">
        <rect x="75" y="150" width="187" height="187" style="fill:white;fill-opacity:0.5;"/>
    </g>
    <g transform="matrix(1,0,0,1,2178,1013)">
        <rect x="75" y="150" width="187" height="187" style="fill:white;fill-opacity:0.5;"/>
    </g>
    <g transform="matrix(1,0,0,1,1615,1238)">
        <rect x="75" y="150" width="187" height="187" style="fill:white;fill-opacity:0.5;"/>
    </g>
    <g transform="matrix(1,0,0,1,1803,1238)">
        <rect x="75" y="150" width="187" height="187" style="fill:white;fill-opacity:0.5;"/>
    </g>
    <g transform="matrix(1,0,0,1,1990,1238)">
        <rect x="75" y="150" width="187" height="187" style="fill:white;fill-opacity:0.5;"/>
    </g>
    <g transform="matrix(1,0,0,1,2178,1238)">
        <rect x="75" y="150" width="187" height="187" style="fill:white;fill-opacity:0.5;"/>
    </g>
    <g transform="matrix(1,0,0,1,1615,1426)">
        <rect x="75" y="150" width="187" height="187" style="fill:white;fill-opacity:0.5;"/>
    </g>
    <g transform="matrix(1,0,0,1,1803,1426)">
        <rect x="75" y="150" width="187" height="187" style="fill:white;fill-opacity:0.5;"/>
    </g>
    <g transform="matrix(1,0,0,1,1990,1426)">
        <rect x="75" y="150" width="187" height="187" style="fill:white;fill-opacity:0.5;"/>
    </g>
    <g transform="matrix(1,0,0,1,2178,1426)">
        <rect x="75" y="150" width="187" height="187" style="fill:white;fill-opacity:0.5;"/>
    </g>
    <g transform="matrix(1,0,0,1,1615,1650)">
        <rect x="75" y="150" width="187" height="187" style="fill:white;fill-opacity:0.5;"/>
    </g>
    <g transform="matrix(1,0,0,1,1803,1650)">
        <rect x="75" y="150" width="187" height="187" style="fill:white;fill-opacity:0.5;"/>
    </g>
    <g transform="matrix(1,0,0,1,1990,1650)">
        <rect x="75" y="150" width="187" height="187" style="fill:white;fill-opacity:0.5;"/>
    </g>
    <g transform="matrix(1,0,0,1,2178,1650)">
        <rect x="75" y="150" width="187" height="187" style="fill:white;fill-opacity:0.5;"/>
    </g>
    <g transform="matrix(1,0,0,1,1615,1838)">
        <rect x="75" y="150" width="187" height="187" style="fill:white;fill-opacity:0.5;"/>
    </g>
    <g transform="matrix(1,0,0,1,1803,1838)">
        <rect x="75" y="150" width="187" height="187" style="fill:white;fill-opacity:0.5;"/>
    </g>
    <g transform="matrix(1,0,0,1,1990,1838)">
        <rect x="75" y="150" width="187" height="187" style="fill:white;fill-opacity:0.5;"/>
    </g>
    <g transform="matrix(1,0,0,1,2178,1838)">
        <rect x="75" y="150" width="187" height="187" style="fill:white;fill-opacity:0.5;"/>
    </g>
    <g transform="matrix(1,0,0,1,1615,2063)">
        <rect x="75" y="150" width="187" height="187" style="fill:white;fill-opacity:0.5;"/>
    </g>
    <g transform="matrix(1,0,0,1,1803,2063)">
        <rect x="75" y="150" width="187" height="187" style="fill:white;fill-opacity:0.5;"/>
    </g>
    <g transform="matrix(1,0,0,1,1990,2063)">
        <rect x="75" y="150" width="187" height="187" style="fill:white;fill-opacity:0.5;"/>
    </g>
    <g transform="matrix(1,0,0,1,2178,2063)">
        <rect x="75" y="150" width="187" height="187" style="fill:white;fill-opacity:0.5;"/>
    </g>
    <g transform="matrix(1,0,0,1,2400,0)">
        <rect x="75" y="150" width="187" height="187" style="fill:white;fill-opacity:0.5;"/>
    </g>
    <g transform="matrix(1,0,0,1,2588,0)">
        <rect x="75" y="150" width="187" height="187" style="fill:white;fill-opacity:0.5;"/>
    </g>
    <g transform="matrix(1,0,0,1,2775,0)">
        <rect x="75" y="150" width="187" height="187" style="fill:white;fill-opacity:0.5;"/>
    </g>
    <g transform="matrix(1,0,0,1,2963,0)">
        <rect x="75" y="150" width="187" height="187" style="fill:white;fill-opacity:0.5;"/>
    </g>
    <g transform="matrix(1,0,0,1,2400,188)">
        <rect x="75" y="150" width="187" height="187" style="fill:white;fill-opacity:0.5;"/>
    </g>
    <g transform="matrix(1,0,0,1,2588,188)">
        <rect x="75" y="150" width="187" height="187" style="fill:white;fill-opacity:0.5;"/>
    </g>
    <g transform="matrix(1,0,0,1,2775,188)">
        <rect x="75" y="150" width="187" height="187" style="fill:white;fill-opacity:0.5;"/>
    </g>
    <g transform="matrix(1,0,0,1,2963,188)">
        <rect x="75" y="150" width="187" height="187" style="fill:white;fill-opacity:0.5;"/>
    </g>
    <g transform="matrix(1,0,0,1,2400,413)">
        <rect x="75" y="150" width="187" height="187" style="fill:white;fill-opacity:0.5;"/>
    </g>
    <g transform="matrix(1,0,0,1,2588,413)">
        <rect x="75" y="150" width="187" height="187" style="fill:white;fill-opacity:0.5;"/>
    </g>
    <g transform="matrix(1,0,0,1,2775,413)">
        <rect x="75" y="150" width="187" height="187" style="fill:white;fill-opacity:0.5;"/>
    </g>
    <g transform="matrix(1,0,0,1,2963,413)">
        <rect x="75" y="150" width="187" height="187" style="fill:white;fill-opacity:0.5;"/>
    </g>
    <g transform="matrix(1,0,0,1,2400,601)">
        <rect x="75" y="150" width="187" height="187" style="fill:white;fill-opacity:0.5;"/>
    </g>
    <g transform="matrix(1,0,0,1,2588,601)">
        <rect x="75" y="150" width="187" height="187" style="fill:white;fill-opacity:0.5;"/>
    </g>
    <g transform="matrix(1,0,0,1,2775,601)">
        <rect x="75" y="150" width="187" height="187" style="fill:white;fill-opacity:0.5;"/>
    </g>
    <g transform="matrix(1,0,0,1,2963,601)">
        <rect x="75" y="150" width="187" height="187" style="fill:white;fill-opacity:0.5;"/>
    </g>
    <g transform="matrix(1,0,0,1,2400,825)">
        <rect x="75" y="150" width="187" height="187" style="fill:white;fill-opacity:0.5;"/>
    </g>
    <g transform="matrix(1,0,0,1,2588,825)">
        <rect x="75" y="150" width="187" height="187" style="fill:white;fill-opacity:0.5;"/>
    </g>
    <g transform="matrix(1,0,0,1,2775,825)">
        <rect x="75" y="150" width="187" height="187" style="fill:white;fill-opacity:0.5;"/>
    </g>
    <g transform="matrix(1,0,0,1,2963,825)">
        <rect x="75" y="150" width="187" height="187" style="fill:white;fill-opacity:0.5;"/>
    </g>
    <g transform="matrix(1,0,0,1,2400,1013)">
        <rect x="75" y="150" width="187" height="187" style="fill:white;fill-opacity:0.5;"/>
    </g>
    <g transform="matrix(1,0,0,1,2588,1013)">
        <rect x="75" y="150" width="187" height="187" style="fill:white;fill-opacity:0.5;"/>
    </g>
    <g transform="matrix(1,0,0,1,2775,1013)">
        <rect x="75" y="150" width="187" height="187" style="fill:white;fill-opacity:0.5;"/>
    </g>
    <g transform="matrix(1,0,0,1,2963,1013)">
        <rect x="75" y="150" width="187" height="187" style="fill:white;fill-opacity:0.5;"/>
    </g>
    <g transform="matrix(1,0,0,1,2400,1238)">
        <rect x="75" y="150" width="187" height="187" style="fill:white;fill-opacity:0.5;"/>
    </g>
    <g transform="matrix(1,0,0,1,2588,1238)">
        <rect x="75" y="150" width="187" height="187" style="fill:white;fill-opacity:0.5;"/>
    </g>
    <g transform="matrix(1,0,0,1,2775,1238)">
        <rect x="75" y="150" width="187" height="187" style="fill:white;fill-opacity:0.5;"/>
    </g>
    <g transform="matrix(1,0,0,1,2963,1238)">
        <rect x="75" y="150" width="187" height="187" style="fill:white;fill-opacity:0.5;"/>
    </g>
    <g transform="matrix(1,0,0,1,2400,1426)">
        <rect x="75" y="150" width="187" height="187" style="fill:white;fill-opacity:0.5;"/>
    </g>
    <g transform="matrix(1,0,0,1,2588,1426)">
        <rect x="75" y="150" width="187" height="187" style="fill:white;fill-opacity:0.5;"/>
    </g>
    <g transform="matrix(1,0,0,1,2775,1426)">
        <rect x="75" y="150" width="187" height="187" style="fill:white;fill-opacity:0.5;"/>
    </g>
    <g transform="matrix(1,0,0,1,2963,1426)">
        <rect x="75" y="150" width="187" height="187" style="fill:white;fill-opacity:0.5;"/>
    </g>
    <g transform="matrix(1,0,0,1,2400,1650)">
        <rect x="75" y="150" width="187" height="187" style="fill:white;fill-opacity:0.5;"/>
    </g>
    <g transform="matrix(1,0,0,1,2588,1650)">
        <rect x="75" y="150" width="187" height="187" style="fill:white;fill-opacity:0.5;"/>
    </g>
    <g transform="matrix(1,0,0,1,2775,1650)">
        <rect x="75" y="150" width="187" height="187" style="fill:white;fill-opacity:0.5;"/>
    </g>
    <g transform="matrix(1,0,0,1,2963,1650)">
        <rect x="75" y="150" width="187" height="187" style="fill:white;fill-opacity:0.5;"/>
    </g>
    <g transform="matrix(1,0,0,1,2400,1838)">
        <rect x="75" y="150" width="187" height="187" style="fill:white;fill-opacity:0.5;"/>
    </g>
    <g transform="matrix(1,0,0,1,2588,1838)">
        <rect x="75" y="150" width="187" height="187" style="fill:white;fill-opacity:0.5;"/>
    </g>
    <g transform="matrix(1,0,0,1,2775,1838)">
        <rect x="75" y="150" width="187" height="187" style="fill:white;fill-opacity:0.5;"/>
    </g>
    <g transform="matrix(1,0,0,1,2963,1838)">
        <rect x="75" y="150" width="187" height="187" style="fill:white;fill-opacity:0.5;"/>
    </g>
    <g transform="matrix(1,0,0,1,2400,2063)">
        <rect x="75" y="150" width="187" height="187" style="fill:white;fill-opacity:0.5;"/>
    </g>
    <g transform="matrix(1,0,0,1,2588,2063)">
        <rect x="75" y="150" width="187" height="187" style="fill:white;fill-opacity:0.5;"/>
    </g>
    <g transform="matrix(1,0,0,1,2775,2063)">
        <rect x="75" y="150" width="187" height="187" style="fill:white;fill-opacity:0.5;"/>
    </g>
    <g transform="matrix(1,0,0,1,2963,2063)">
        <rect x="75" y="150" width="187" height="187" style="fill:white;fill-opacity:0.5;"/>
    </g>
</svg>
