# Blender v2.82 (sub 7) OBJ File: 'countersheet3.blend'
# www.blender.org
mtllib Curve_021.mtl
o Curve.021_Curve.800
v -0.500142 -0.019685 -0.500036
v 0.500142 -0.019685 -0.500036
v 0.500142 -0.019685 0.500036
v -0.500142 -0.019685 0.500036
v -0.500142 0.019685 -0.500036
v -0.500142 0.019685 0.500036
v 0.500142 0.019685 -0.500036
v 0.500142 0.019685 0.500036
vt 0.960827 0.194214
vt 0.869691 0.076324
vt 0.960827 0.076324
vt 0.022559 0.195661
vt 0.113382 0.078175
vt 0.113382 0.195661
vt 0.286658 0.035690
vt 0.240158 0.035690
vt 0.240158 0.035690
vt 0.255658 0.035690
vt 0.271158 0.035690
vt 0.271158 0.035690
vt 0.255658 0.035690
vt 0.286658 0.035690
vt 0.869691 0.194214
vt 0.022559 0.078175
vn 0.0000 -1.0000 0.0000
vn 0.0000 1.0000 0.0000
vn -1.0000 0.0000 0.0000
vn 1.0000 0.0000 0.0000
vn 0.0000 0.0000 -1.0000
vn 0.0000 0.0000 1.0000
usemtl SVGMat.008
s off
f 3/1/1 1/2/1 2/3/1
f 5/4/2 8/5/2 7/6/2
f 4/7/3 5/8/3 1/9/3
f 2/10/4 8/11/4 3/12/4
f 1/9/5 7/13/5 2/10/5
f 3/12/6 6/14/6 4/7/6
f 3/1/1 4/15/1 1/2/1
f 5/4/2 6/16/2 8/5/2
f 4/7/3 6/14/3 5/8/3
f 2/10/4 7/13/4 8/11/4
f 1/9/5 5/8/5 7/13/5
f 3/12/6 8/11/6 6/14/6
