# Blender v2.82 (sub 7) OBJ File: 'countersheet3.blend'
# www.blender.org
mtllib Curve_011.mtl
o Curve.011_Curve.790
v -0.500142 -0.019685 -0.000000
v -0.495574 -0.019685 -0.067822
v -0.482267 -0.019685 -0.132880
v -0.460818 -0.019685 -0.194576
v -0.431826 -0.019685 -0.252314
v -0.395888 -0.019685 -0.305497
v -0.353600 -0.019685 -0.353526
v -0.305561 -0.019685 -0.395804
v -0.252368 -0.019685 -0.431735
v -0.194618 -0.019685 -0.460721
v -0.132908 -0.019685 -0.482165
v -0.067836 -0.019685 -0.495469
v -0.000000 -0.019685 -0.500036
v 0.067836 -0.019685 -0.495469
v 0.132908 -0.019685 -0.482165
v 0.194617 -0.019685 -0.460721
v 0.252367 -0.019685 -0.431735
v 0.305561 -0.019685 -0.395804
v 0.353600 -0.019685 -0.353525
v 0.395887 -0.019685 -0.305496
v 0.431826 -0.019685 -0.252314
v 0.460818 -0.019685 -0.194576
v 0.482266 -0.019685 -0.132880
v 0.495573 -0.019685 -0.067822
v 0.500142 -0.019685 -0.000000
v 0.495573 -0.019685 0.067822
v 0.482266 -0.019685 0.132880
v 0.460818 -0.019685 0.194577
v 0.431826 -0.019685 0.252314
v 0.395888 -0.019685 0.305497
v 0.353600 -0.019685 0.353526
v 0.305561 -0.019685 0.395804
v 0.252368 -0.019685 0.431735
v 0.194618 -0.019685 0.460721
v 0.132908 -0.019685 0.482165
v 0.067837 -0.019685 0.495469
v -0.000000 -0.019685 0.500036
v -0.067836 -0.019685 0.495469
v -0.132908 -0.019685 0.482165
v -0.194617 -0.019685 0.460721
v -0.252368 -0.019685 0.431735
v -0.305561 -0.019685 0.395804
v -0.353600 -0.019685 0.353525
v -0.395887 -0.019685 0.305497
v -0.431826 -0.019685 0.252314
v -0.460818 -0.019685 0.194577
v -0.482266 -0.019685 0.132880
v -0.495573 -0.019685 0.067822
v -0.067836 0.019685 -0.495469
v -0.000000 0.019685 -0.500036
v 0.067836 0.019685 -0.495469
v -0.132908 0.019685 -0.482165
v 0.132908 0.019685 -0.482165
v -0.194618 0.019685 -0.460721
v 0.194617 0.019685 -0.460721
v -0.252368 0.019685 -0.431735
v 0.252367 0.019685 -0.431735
v -0.305561 0.019685 -0.395804
v 0.305561 0.019685 -0.395804
v -0.353600 0.019685 -0.353526
v 0.353600 0.019685 -0.353525
v -0.395888 0.019685 -0.305497
v 0.395887 0.019685 -0.305496
v -0.431826 0.019685 -0.252314
v 0.431826 0.019685 -0.252314
v -0.460818 0.019685 -0.194576
v 0.460818 0.019685 -0.194576
v -0.482267 0.019685 -0.132880
v 0.482266 0.019685 -0.132880
v -0.495574 0.019685 -0.067822
v 0.495573 0.019685 -0.067822
v -0.500142 0.019685 -0.000000
v 0.500142 0.019685 -0.000000
v -0.495573 0.019685 0.067822
v 0.495573 0.019685 0.067822
v -0.482266 0.019685 0.132880
v 0.482266 0.019685 0.132880
v -0.460818 0.019685 0.194577
v 0.460818 0.019685 0.194577
v -0.431826 0.019685 0.252314
v 0.431826 0.019685 0.252314
v -0.395887 0.019685 0.305497
v 0.395888 0.019685 0.305497
v -0.353600 0.019685 0.353525
v 0.353600 0.019685 0.353526
v -0.305561 0.019685 0.395804
v 0.305561 0.019685 0.395804
v -0.252368 0.019685 0.431735
v 0.252368 0.019685 0.431735
v -0.194617 0.019685 0.460721
v 0.194618 0.019685 0.460721
v -0.132908 0.019685 0.482165
v 0.132908 0.019685 0.482165
v -0.067836 0.019685 0.495469
v 0.067837 0.019685 0.495469
v -0.000000 0.019685 0.500036
vt 0.602968 0.573230
vt 0.589616 0.614904
vt 0.589616 0.531556
vt 0.456707 0.531844
vt 0.392495 0.614907
vt 0.392495 0.531844
vt 0.263903 0.035690
vt 0.264892 0.035690
vt 0.264892 0.035690
vt 0.245105 0.035690
vt 0.246094 0.035690
vt 0.246094 0.035690
vt 0.270828 0.035690
vt 0.271818 0.035690
vt 0.271818 0.035690
vt 0.285669 0.035690
vt 0.286658 0.035690
vt 0.286658 0.035690
vt 0.257967 0.035690
vt 0.258956 0.035690
vt 0.258956 0.035690
vt 0.278743 0.035690
vt 0.279733 0.035690
vt 0.279733 0.035690
vt 0.251041 0.035690
vt 0.252030 0.035690
vt 0.252030 0.035690
vt 0.265882 0.035690
vt 0.265882 0.035690
vt 0.244115 0.035690
vt 0.245105 0.035690
vt 0.272807 0.035690
vt 0.272807 0.035690
vt 0.253020 0.035690
vt 0.253020 0.035690
vt 0.284680 0.035690
vt 0.285669 0.035690
vt 0.259945 0.035690
vt 0.259945 0.035690
vt 0.277754 0.035690
vt 0.278743 0.035690
vt 0.250052 0.035690
vt 0.251041 0.035690
vt 0.266871 0.035690
vt 0.266871 0.035690
vt 0.243126 0.035690
vt 0.244115 0.035690
vt 0.273797 0.035690
vt 0.273797 0.035690
vt 0.254009 0.035690
vt 0.254009 0.035690
vt 0.283690 0.035690
vt 0.284680 0.035690
vt 0.260935 0.035690
vt 0.260935 0.035690
vt 0.276765 0.035690
vt 0.277754 0.035690
vt 0.249062 0.035690
vt 0.250052 0.035690
vt 0.267860 0.035690
vt 0.267860 0.035690
vt 0.242137 0.035690
vt 0.243126 0.035690
vt 0.274786 0.035690
vt 0.274786 0.035690
vt 0.254998 0.035690
vt 0.254998 0.035690
vt 0.282701 0.035690
vt 0.283690 0.035690
vt 0.261924 0.035690
vt 0.261924 0.035690
vt 0.275775 0.035690
vt 0.276765 0.035690
vt 0.248073 0.035690
vt 0.249062 0.035690
vt 0.268850 0.035690
vt 0.268850 0.035690
vt 0.241147 0.035690
vt 0.242137 0.035690
vt 0.275775 0.035690
vt 0.255988 0.035690
vt 0.255988 0.035690
vt 0.281712 0.035690
vt 0.282701 0.035690
vt 0.262913 0.035690
vt 0.262913 0.035690
vt 0.247083 0.035690
vt 0.248073 0.035690
vt 0.269839 0.035690
vt 0.269839 0.035690
vt 0.240158 0.035690
vt 0.241147 0.035690
vt 0.256977 0.035690
vt 0.256977 0.035690
vt 0.280722 0.035690
vt 0.281712 0.035690
vt 0.263903 0.035690
vt 0.247083 0.035690
vt 0.270828 0.035690
vt 0.240158 0.035690
vt 0.257967 0.035690
vt 0.280722 0.035690
vt 0.557400 0.632175
vt 0.551219 0.631636
vt 0.534407 0.624123
vt 0.545291 0.630068
vt 0.539668 0.627540
vt 0.529560 0.619888
vt 0.525183 0.614904
vt 0.521330 0.609242
vt 0.511832 0.573230
vt 0.518056 0.602973
vt 0.515415 0.596167
vt 0.512248 0.581225
vt 0.513461 0.588894
vt 0.512248 0.565235
vt 0.518056 0.543486
vt 0.513460 0.557566
vt 0.515415 0.550293
vt 0.521330 0.537217
vt 0.525183 0.531556
vt 0.529560 0.526572
vt 0.557400 0.514285
vt 0.534407 0.522336
vt 0.539668 0.518919
vt 0.551219 0.514823
vt 0.545290 0.516391
vt 0.563580 0.514823
vt 0.580393 0.522336
vt 0.569509 0.516391
vt 0.575131 0.518919
vt 0.585239 0.526572
vt 0.593469 0.537217
vt 0.596743 0.543486
vt 0.599385 0.550293
vt 0.602551 0.565235
vt 0.601339 0.557566
vt 0.602551 0.581225
vt 0.596743 0.602973
vt 0.601339 0.588894
vt 0.599385 0.596167
vt 0.593469 0.609242
vt 0.585239 0.619888
vt 0.580393 0.624123
vt 0.575131 0.627540
vt 0.563580 0.631636
vt 0.569509 0.630068
vt 0.436669 0.630019
vt 0.430761 0.631582
vt 0.442272 0.627500
vt 0.424601 0.632118
vt 0.447515 0.624095
vt 0.418442 0.631582
vt 0.401687 0.624095
vt 0.412534 0.630019
vt 0.406930 0.627500
vt 0.396857 0.619874
vt 0.388656 0.609264
vt 0.379190 0.573376
vt 0.385393 0.603017
vt 0.382760 0.596234
vt 0.379605 0.581343
vt 0.380813 0.588986
vt 0.379605 0.565408
vt 0.385393 0.543735
vt 0.380813 0.557765
vt 0.382760 0.550517
vt 0.388656 0.537487
vt 0.396857 0.526878
vt 0.424601 0.514633
vt 0.401687 0.522657
vt 0.406930 0.519252
vt 0.418442 0.515170
vt 0.412534 0.516732
vt 0.430761 0.515169
vt 0.447515 0.522657
vt 0.436669 0.516732
vt 0.442272 0.519252
vt 0.452345 0.526878
vt 0.460546 0.537487
vt 0.470012 0.573376
vt 0.463810 0.543735
vt 0.466442 0.550517
vt 0.469598 0.565408
vt 0.468389 0.557765
vt 0.469598 0.581343
vt 0.463810 0.603017
vt 0.468389 0.588986
vt 0.466442 0.596234
vt 0.460546 0.609264
vt 0.456707 0.614907
vt 0.452345 0.619874
vn 0.0000 -1.0000 -0.0000
vn 0.0000 1.0000 -0.0000
vn 0.9977 0.0000 0.0672
vn -0.7505 0.0000 -0.6608
vn 0.5597 0.0000 0.8287
vn -0.9797 0.0000 0.2004
vn 0.7505 0.0000 -0.6608
vn -0.4486 0.0000 0.8937
vn -0.0672 0.0000 -0.9977
vn 0.9797 0.0000 0.2004
vn -0.8286 0.0000 -0.5599
vn 0.4486 0.0000 0.8937
vn 0.0672 0.0000 -0.9977
vn -0.9446 0.0000 0.3284
vn 0.8286 0.0000 -0.5599
vn -0.3282 0.0000 0.9446
vn -0.2003 0.0000 -0.9797
vn 0.9446 0.0000 0.3284
vn -0.8937 0.0000 -0.4487
vn 0.3282 0.0000 0.9446
vn 0.2003 0.0000 -0.9797
vn -0.8937 0.0000 0.4487
vn 0.8937 0.0000 -0.4487
vn -0.2003 0.0000 0.9797
vn -0.3282 0.0000 -0.9446
vn 0.8937 0.0000 0.4487
vn -0.9445 0.0000 -0.3284
vn 0.2003 0.0000 0.9797
vn 0.3282 0.0000 -0.9446
vn -0.8286 0.0000 0.5599
vn 0.9446 0.0000 -0.3284
vn -0.0672 0.0000 0.9977
vn -0.4486 0.0000 -0.8937
vn 0.8286 0.0000 0.5599
vn -0.9797 0.0000 -0.2004
vn 0.0672 0.0000 0.9977
vn 0.4486 0.0000 -0.8937
vn -0.7505 0.0000 0.6608
vn 0.9797 0.0000 -0.2004
vn -0.5597 0.0000 -0.8287
vn 0.7505 0.0000 0.6608
vn -0.9977 0.0000 -0.0672
vn 0.5597 0.0000 -0.8287
vn -0.6607 0.0000 0.7507
vn 0.9977 0.0000 -0.0672
vn -0.6607 0.0000 -0.7507
vn 0.6607 0.0000 0.7507
vn -0.9977 0.0000 0.0672
vn 0.6607 0.0000 -0.7507
vn -0.5597 0.0000 0.8287
usemtl SVGMat.008
s off
f 1/1/1 7/2/1 43/3/1
f 85/4/2 60/5/2 84/6/2
f 25/7/3 75/8/3 26/9/3
f 6/10/4 60/11/4 7/12/4
f 32/13/5 89/14/5 33/15/5
f 47/16/6 74/17/6 48/18/6
f 19/19/7 63/20/7 20/21/7
f 40/22/8 88/23/8 41/24/8
f 12/25/9 50/26/9 13/27/9
f 26/9/10 77/28/10 27/29/10
f 5/30/11 62/31/11 6/10/11
f 33/15/12 91/32/12 34/33/12
f 13/27/13 51/34/13 14/35/13
f 46/36/14 76/37/14 47/16/14
f 20/21/15 65/38/15 21/39/15
f 39/40/16 90/41/16 40/22/16
f 11/42/17 49/43/17 12/25/17
f 27/29/18 79/44/18 28/45/18
f 4/46/19 64/47/19 5/30/19
f 34/33/20 93/48/20 35/49/20
f 14/35/21 53/50/21 15/51/21
f 45/52/22 78/53/22 46/36/22
f 21/39/23 67/54/23 22/55/23
f 38/56/24 92/57/24 39/40/24
f 10/58/25 52/59/25 11/42/25
f 28/45/26 81/60/26 29/61/26
f 3/62/27 66/63/27 4/46/27
f 35/49/28 95/64/28 36/65/28
f 15/51/29 55/66/29 16/67/29
f 44/68/30 80/69/30 45/52/30
f 22/55/31 69/70/31 23/71/31
f 37/72/32 94/73/32 38/56/32
f 9/74/33 54/75/33 10/58/33
f 29/61/34 83/76/34 30/77/34
f 2/78/35 68/79/35 3/62/35
f 36/65/36 96/80/36 37/72/36
f 16/67/37 57/81/37 17/82/37
f 43/83/38 82/84/38 44/68/38
f 23/71/39 71/85/39 24/86/39
f 8/87/40 56/88/40 9/74/40
f 30/77/41 85/89/41 31/90/41
f 1/91/42 70/92/42 2/78/42
f 17/82/43 59/93/43 18/94/43
f 42/95/44 84/96/44 43/83/44
f 24/86/45 73/97/45 25/7/45
f 7/12/46 58/98/46 8/87/46
f 31/90/47 87/99/47 32/13/47
f 48/18/48 72/100/48 1/91/48
f 18/94/49 61/101/49 19/19/49
f 41/24/50 86/102/50 42/95/50
f 13/103/1 14/104/1 17/105/1
f 14/104/1 15/106/1 16/107/1
f 17/105/1 14/104/1 16/107/1
f 17/105/1 18/108/1 13/103/1
f 18/108/1 19/109/1 13/103/1
f 19/109/1 20/110/1 25/111/1
f 20/110/1 21/112/1 25/111/1
f 21/112/1 22/113/1 24/114/1
f 22/113/1 23/115/1 24/114/1
f 24/114/1 25/111/1 21/112/1
f 25/111/1 26/116/1 29/117/1
f 26/116/1 27/118/1 28/119/1
f 29/117/1 26/116/1 28/119/1
f 29/117/1 30/120/1 25/111/1
f 30/120/1 31/121/1 25/111/1
f 31/121/1 32/122/1 37/123/1
f 32/122/1 33/124/1 37/123/1
f 33/124/1 34/125/1 36/126/1
f 34/125/1 35/127/1 36/126/1
f 36/126/1 37/123/1 33/124/1
f 37/123/1 38/128/1 41/129/1
f 38/128/1 39/130/1 40/131/1
f 41/129/1 38/128/1 40/131/1
f 41/129/1 42/132/1 37/123/1
f 42/132/1 43/3/1 37/123/1
f 43/3/1 44/133/1 1/1/1
f 44/133/1 45/134/1 1/1/1
f 45/134/1 46/135/1 48/136/1
f 46/135/1 47/137/1 48/136/1
f 48/136/1 1/1/1 45/134/1
f 1/1/1 2/138/1 5/139/1
f 2/138/1 3/140/1 4/141/1
f 5/139/1 2/138/1 4/141/1
f 5/139/1 6/142/1 1/1/1
f 6/142/1 7/2/1 1/1/1
f 7/2/1 8/143/1 13/103/1
f 8/143/1 9/144/1 13/103/1
f 9/144/1 10/145/1 12/146/1
f 10/145/1 11/147/1 12/146/1
f 12/146/1 13/103/1 9/144/1
f 13/103/1 19/109/1 7/2/1
f 37/123/1 43/3/1 31/121/1
f 19/109/1 25/111/1 31/121/1
f 19/109/1 43/3/1 7/2/1
f 43/3/1 19/109/1 31/121/1
f 53/148/2 51/149/2 55/150/2
f 51/149/2 50/151/2 57/152/2
f 50/151/2 49/153/2 56/154/2
f 49/153/2 52/155/2 54/156/2
f 56/154/2 49/153/2 54/156/2
f 56/154/2 58/157/2 50/151/2
f 58/157/2 60/5/2 50/151/2
f 60/5/2 62/158/2 72/159/2
f 62/158/2 64/160/2 72/159/2
f 64/160/2 66/161/2 70/162/2
f 66/161/2 68/163/2 70/162/2
f 70/162/2 72/159/2 64/160/2
f 72/159/2 74/164/2 80/165/2
f 74/164/2 76/166/2 78/167/2
f 80/165/2 74/164/2 78/167/2
f 80/165/2 82/168/2 72/159/2
f 82/168/2 84/6/2 72/159/2
f 84/6/2 86/169/2 96/170/2
f 86/169/2 88/171/2 96/170/2
f 88/171/2 90/172/2 94/173/2
f 90/172/2 92/174/2 94/173/2
f 94/173/2 96/170/2 88/171/2
f 96/170/2 95/175/2 89/176/2
f 95/175/2 93/177/2 91/178/2
f 89/176/2 95/175/2 91/178/2
f 89/176/2 87/179/2 96/170/2
f 87/179/2 85/4/2 96/170/2
f 85/4/2 83/180/2 73/181/2
f 83/180/2 81/182/2 73/181/2
f 81/182/2 79/183/2 75/184/2
f 79/183/2 77/185/2 75/184/2
f 75/184/2 73/181/2 81/182/2
f 73/181/2 71/186/2 65/187/2
f 71/186/2 69/188/2 67/189/2
f 65/187/2 71/186/2 67/189/2
f 65/187/2 63/190/2 73/181/2
f 63/190/2 61/191/2 73/181/2
f 61/191/2 59/192/2 50/151/2
f 59/192/2 57/152/2 50/151/2
f 57/152/2 55/150/2 51/149/2
f 60/5/2 72/159/2 84/6/2
f 85/4/2 73/181/2 61/191/2
f 50/151/2 60/5/2 61/191/2
f 85/4/2 84/6/2 96/170/2
f 85/4/2 61/191/2 60/5/2
f 25/7/3 73/97/3 75/8/3
f 6/10/4 62/31/4 60/11/4
f 32/13/5 87/99/5 89/14/5
f 47/16/6 76/37/6 74/17/6
f 19/19/7 61/101/7 63/20/7
f 40/22/8 90/41/8 88/23/8
f 12/25/9 49/43/9 50/26/9
f 26/9/10 75/8/10 77/28/10
f 5/30/11 64/47/11 62/31/11
f 33/15/12 89/14/12 91/32/12
f 13/27/13 50/26/13 51/34/13
f 46/36/14 78/53/14 76/37/14
f 20/21/15 63/20/15 65/38/15
f 39/40/16 92/57/16 90/41/16
f 11/42/17 52/59/17 49/43/17
f 27/29/18 77/28/18 79/44/18
f 4/46/19 66/63/19 64/47/19
f 34/33/20 91/32/20 93/48/20
f 14/35/21 51/34/21 53/50/21
f 45/52/22 80/69/22 78/53/22
f 21/39/23 65/38/23 67/54/23
f 38/56/24 94/73/24 92/57/24
f 10/58/25 54/75/25 52/59/25
f 28/45/26 79/44/26 81/60/26
f 3/62/27 68/79/27 66/63/27
f 35/49/28 93/48/28 95/64/28
f 15/51/29 53/50/29 55/66/29
f 44/68/30 82/84/30 80/69/30
f 22/55/31 67/54/31 69/70/31
f 37/72/32 96/80/32 94/73/32
f 9/74/33 56/88/33 54/75/33
f 29/61/34 81/60/34 83/76/34
f 2/78/35 70/92/35 68/79/35
f 36/65/36 95/64/36 96/80/36
f 16/67/37 55/66/37 57/81/37
f 43/83/38 84/96/38 82/84/38
f 23/71/39 69/70/39 71/85/39
f 8/87/40 58/98/40 56/88/40
f 30/77/41 83/76/41 85/89/41
f 1/91/42 72/100/42 70/92/42
f 17/82/43 57/81/43 59/93/43
f 42/95/44 86/102/44 84/96/44
f 24/86/45 71/85/45 73/97/45
f 7/12/46 60/11/46 58/98/46
f 31/90/47 85/89/47 87/99/47
f 48/18/48 74/17/48 72/100/48
f 18/94/49 59/93/49 61/101/49
f 41/24/50 88/23/50 86/102/50
