# Blender v2.82 (sub 7) OBJ File: 'countersheet3.blend'
# www.blender.org
mtllib Curve_007.mtl
o Curve.007_Curve.786
v -0.500142 -0.019685 0.000000
v -0.495574 -0.019685 -0.067822
v -0.482267 -0.019685 -0.132880
v -0.460818 -0.019685 -0.194577
v -0.431826 -0.019685 -0.252315
v -0.395888 -0.019685 -0.305497
v -0.353600 -0.019685 -0.353526
v -0.305561 -0.019685 -0.395805
v -0.252368 -0.019685 -0.431736
v -0.194618 -0.019685 -0.460722
v -0.132908 -0.019685 -0.482166
v -0.067836 -0.019685 -0.495469
v -0.000000 -0.019685 -0.500036
v 0.067836 -0.019685 -0.495469
v 0.132908 -0.019685 -0.482165
v 0.194617 -0.019685 -0.460721
v 0.252367 -0.019685 -0.431735
v 0.305561 -0.019685 -0.395804
v 0.353600 -0.019685 -0.353525
v 0.395887 -0.019685 -0.305497
v 0.431826 -0.019685 -0.252314
v 0.460818 -0.019685 -0.194576
v 0.482266 -0.019685 -0.132880
v 0.495573 -0.019685 -0.067821
v 0.500142 -0.019685 0.000000
v 0.495573 -0.019685 0.067822
v 0.482266 -0.019685 0.132880
v 0.460818 -0.019685 0.194577
v 0.431826 -0.019685 0.252315
v 0.395888 -0.019685 0.305497
v 0.353600 -0.019685 0.353526
v 0.305561 -0.019685 0.395805
v 0.252368 -0.019685 0.431736
v 0.194618 -0.019685 0.460722
v 0.132908 -0.019685 0.482165
v 0.067837 -0.019685 0.495469
v -0.000000 -0.019685 0.500036
v -0.067836 -0.019685 0.495469
v -0.132908 -0.019685 0.482165
v -0.194617 -0.019685 0.460721
v -0.252368 -0.019685 0.431735
v -0.305561 -0.019685 0.395804
v -0.353600 -0.019685 0.353526
v -0.395887 -0.019685 0.305496
v -0.431826 -0.019685 0.252315
v -0.460818 -0.019685 0.194576
v -0.482266 -0.019685 0.132880
v -0.495573 -0.019685 0.067822
v -0.067836 0.019685 -0.495469
v -0.000000 0.019685 -0.500036
v 0.067836 0.019685 -0.495469
v -0.132908 0.019685 -0.482166
v 0.132908 0.019685 -0.482165
v -0.194618 0.019685 -0.460722
v 0.194617 0.019685 -0.460721
v -0.252368 0.019685 -0.431736
v 0.252367 0.019685 -0.431735
v -0.305561 0.019685 -0.395805
v 0.305561 0.019685 -0.395804
v -0.353600 0.019685 -0.353526
v 0.353600 0.019685 -0.353525
v -0.395888 0.019685 -0.305497
v 0.395887 0.019685 -0.305497
v -0.431826 0.019685 -0.252315
v 0.431826 0.019685 -0.252314
v -0.460818 0.019685 -0.194577
v 0.460818 0.019685 -0.194576
v -0.482267 0.019685 -0.132880
v 0.482266 0.019685 -0.132880
v -0.495574 0.019685 -0.067822
v 0.495573 0.019685 -0.067821
v -0.500142 0.019685 0.000000
v 0.500142 0.019685 0.000000
v -0.495573 0.019685 0.067822
v 0.495573 0.019685 0.067822
v -0.482266 0.019685 0.132880
v 0.482266 0.019685 0.132880
v -0.460818 0.019685 0.194576
v 0.460818 0.019685 0.194577
v -0.431826 0.019685 0.252315
v 0.431826 0.019685 0.252315
v -0.395887 0.019685 0.305496
v 0.395888 0.019685 0.305497
v -0.353600 0.019685 0.353526
v 0.353600 0.019685 0.353526
v -0.305561 0.019685 0.395804
v 0.305561 0.019685 0.395805
v -0.252368 0.019685 0.431735
v 0.252368 0.019685 0.431736
v -0.194617 0.019685 0.460721
v 0.194618 0.019685 0.460722
v -0.132908 0.019685 0.482165
v 0.132908 0.019685 0.482165
v -0.067836 0.019685 0.495469
v 0.067837 0.019685 0.495469
v -0.000000 0.019685 0.500036
vt 0.602968 0.720789
vt 0.589616 0.762463
vt 0.589616 0.679115
vt 0.456707 0.678897
vt 0.392495 0.761959
vt 0.392495 0.678897
vt 0.251041 0.035690
vt 0.252030 0.035690
vt 0.252030 0.035690
vt 0.264892 0.035690
vt 0.265882 0.035690
vt 0.265882 0.035690
vt 0.244115 0.035690
vt 0.245105 0.035690
vt 0.245105 0.035690
vt 0.271818 0.035690
vt 0.272807 0.035690
vt 0.272807 0.035690
vt 0.253020 0.035690
vt 0.253020 0.035690
vt 0.284680 0.035690
vt 0.285669 0.035690
vt 0.285669 0.035690
vt 0.258956 0.035690
vt 0.259945 0.035690
vt 0.259945 0.035690
vt 0.277754 0.035690
vt 0.278744 0.035690
vt 0.278744 0.035690
vt 0.250052 0.035690
vt 0.251041 0.035690
vt 0.266871 0.035690
vt 0.266871 0.035690
vt 0.243126 0.035690
vt 0.244115 0.035690
vt 0.273797 0.035690
vt 0.273797 0.035690
vt 0.254009 0.035690
vt 0.254009 0.035690
vt 0.283690 0.035690
vt 0.284680 0.035690
vt 0.260935 0.035690
vt 0.260935 0.035690
vt 0.276765 0.035690
vt 0.277754 0.035690
vt 0.249062 0.035690
vt 0.250052 0.035690
vt 0.267860 0.035690
vt 0.267860 0.035690
vt 0.242137 0.035690
vt 0.243126 0.035690
vt 0.274786 0.035690
vt 0.274786 0.035690
vt 0.254999 0.035690
vt 0.254999 0.035690
vt 0.282701 0.035690
vt 0.283690 0.035690
vt 0.261924 0.035690
vt 0.261924 0.035690
vt 0.275775 0.035690
vt 0.276765 0.035690
vt 0.248073 0.035690
vt 0.249062 0.035690
vt 0.268850 0.035690
vt 0.268850 0.035690
vt 0.241147 0.035690
vt 0.242137 0.035690
vt 0.275775 0.035690
vt 0.255988 0.035690
vt 0.255988 0.035690
vt 0.281712 0.035690
vt 0.282701 0.035690
vt 0.262914 0.035690
vt 0.262914 0.035690
vt 0.247084 0.035690
vt 0.248073 0.035690
vt 0.269839 0.035690
vt 0.269839 0.035690
vt 0.240158 0.035690
vt 0.241147 0.035690
vt 0.256977 0.035690
vt 0.256977 0.035690
vt 0.280722 0.035690
vt 0.281712 0.035690
vt 0.263903 0.035690
vt 0.263903 0.035690
vt 0.246094 0.035690
vt 0.247084 0.035690
vt 0.270829 0.035690
vt 0.270829 0.035690
vt 0.286658 0.035690
vt 0.240158 0.035690
vt 0.257967 0.035690
vt 0.257967 0.035690
vt 0.279733 0.035690
vt 0.280722 0.035690
vt 0.264892 0.035690
vt 0.246094 0.035690
vt 0.271818 0.035690
vt 0.286658 0.035690
vt 0.258956 0.035690
vt 0.279733 0.035690
vt 0.557400 0.779734
vt 0.551219 0.779195
vt 0.534407 0.771682
vt 0.545291 0.777627
vt 0.539668 0.775099
vt 0.529560 0.767447
vt 0.525183 0.762463
vt 0.521330 0.756801
vt 0.511832 0.720789
vt 0.518056 0.750532
vt 0.515415 0.743726
vt 0.512248 0.728784
vt 0.513461 0.736453
vt 0.512248 0.712794
vt 0.518056 0.691045
vt 0.513460 0.705125
vt 0.515415 0.697852
vt 0.521330 0.684776
vt 0.525183 0.679115
vt 0.529560 0.674131
vt 0.557400 0.661844
vt 0.534407 0.669895
vt 0.539668 0.666478
vt 0.551219 0.662382
vt 0.545290 0.663950
vt 0.563580 0.662382
vt 0.580393 0.669895
vt 0.569509 0.663950
vt 0.575131 0.666478
vt 0.585239 0.674131
vt 0.593469 0.684776
vt 0.596743 0.691046
vt 0.599385 0.697852
vt 0.602551 0.712794
vt 0.601339 0.705125
vt 0.602551 0.728784
vt 0.596743 0.750532
vt 0.601339 0.736453
vt 0.599385 0.743726
vt 0.593469 0.756801
vt 0.585239 0.767447
vt 0.580393 0.771682
vt 0.575131 0.775099
vt 0.563580 0.779195
vt 0.569509 0.777627
vt 0.436669 0.777071
vt 0.430761 0.778634
vt 0.442272 0.774552
vt 0.424601 0.779171
vt 0.447515 0.771147
vt 0.418442 0.778634
vt 0.401687 0.771147
vt 0.412534 0.777071
vt 0.406930 0.774552
vt 0.396857 0.766926
vt 0.388656 0.756317
vt 0.379190 0.720428
vt 0.385393 0.750069
vt 0.382760 0.743286
vt 0.379605 0.728396
vt 0.380813 0.736039
vt 0.379605 0.712461
vt 0.385393 0.690787
vt 0.380813 0.704818
vt 0.382760 0.697570
vt 0.388656 0.684539
vt 0.396857 0.673930
vt 0.424601 0.661685
vt 0.401687 0.669709
vt 0.406930 0.666304
vt 0.418442 0.662222
vt 0.412534 0.663785
vt 0.430761 0.662222
vt 0.447515 0.669709
vt 0.436669 0.663785
vt 0.442272 0.666304
vt 0.452345 0.673930
vt 0.460546 0.684539
vt 0.470012 0.720428
vt 0.463810 0.690787
vt 0.466442 0.697570
vt 0.469598 0.712461
vt 0.468389 0.704818
vt 0.469598 0.728396
vt 0.463810 0.750069
vt 0.468389 0.736039
vt 0.466442 0.743286
vt 0.460546 0.756317
vt 0.456707 0.761959
vt 0.452345 0.766926
vn 0.0000 -1.0000 -0.0000
vn 0.0000 1.0000 -0.0000
vn -0.0672 0.0000 -0.9977
vn 0.9797 0.0000 0.2004
vn -0.8286 0.0000 -0.5599
vn 0.4486 0.0000 0.8937
vn 0.0672 0.0000 -0.9977
vn -0.9446 0.0000 0.3284
vn 0.8286 0.0000 -0.5599
vn -0.3282 0.0000 0.9446
vn -0.2003 0.0000 -0.9797
vn 0.9446 0.0000 0.3284
vn -0.8937 0.0000 -0.4487
vn 0.3282 0.0000 0.9446
vn 0.2003 0.0000 -0.9797
vn -0.8937 0.0000 0.4487
vn 0.8937 0.0000 -0.4487
vn -0.2003 0.0000 0.9797
vn -0.3282 0.0000 -0.9446
vn 0.8937 0.0000 0.4487
vn -0.9445 0.0000 -0.3284
vn 0.2003 0.0000 0.9797
vn 0.3282 0.0000 -0.9446
vn -0.8286 0.0000 0.5599
vn 0.9446 0.0000 -0.3284
vn -0.0672 0.0000 0.9977
vn -0.4486 0.0000 -0.8937
vn 0.8286 0.0000 0.5599
vn -0.9797 0.0000 -0.2004
vn 0.0672 0.0000 0.9977
vn 0.4486 0.0000 -0.8937
vn -0.7505 0.0000 0.6608
vn 0.9797 0.0000 -0.2004
vn -0.5597 0.0000 -0.8287
vn 0.7505 0.0000 0.6608
vn -0.9977 0.0000 -0.0672
vn 0.5597 0.0000 -0.8287
vn -0.6607 0.0000 0.7507
vn 0.9977 0.0000 -0.0672
vn -0.6607 0.0000 -0.7507
vn 0.6607 0.0000 0.7507
vn -0.9977 0.0000 0.0672
vn 0.6607 0.0000 -0.7507
vn -0.5597 0.0000 0.8287
vn 0.9977 0.0000 0.0672
vn -0.7505 0.0000 -0.6608
vn 0.5597 0.0000 0.8287
vn -0.9797 0.0000 0.2004
vn 0.7505 0.0000 -0.6608
vn -0.4486 0.0000 0.8937
usemtl SVGMat.008
s off
f 1/1/1 7/2/1 43/3/1
f 85/4/2 60/5/2 84/6/2
f 12/7/3 50/8/3 13/9/3
f 26/10/4 77/11/4 27/12/4
f 5/13/5 62/14/5 6/15/5
f 33/16/6 91/17/6 34/18/6
f 13/9/7 51/19/7 14/20/7
f 46/21/8 76/22/8 47/23/8
f 20/24/9 65/25/9 21/26/9
f 39/27/10 90/28/10 40/29/10
f 11/30/11 49/31/11 12/7/11
f 27/12/12 79/32/12 28/33/12
f 4/34/13 64/35/13 5/13/13
f 34/18/14 93/36/14 35/37/14
f 14/20/15 53/38/15 15/39/15
f 45/40/16 78/41/16 46/21/16
f 21/26/17 67/42/17 22/43/17
f 38/44/18 92/45/18 39/27/18
f 10/46/19 52/47/19 11/30/19
f 28/33/20 81/48/20 29/49/20
f 3/50/21 66/51/21 4/34/21
f 35/37/22 95/52/22 36/53/22
f 15/39/23 55/54/23 16/55/23
f 44/56/24 80/57/24 45/40/24
f 22/43/25 69/58/25 23/59/25
f 37/60/26 94/61/26 38/44/26
f 9/62/27 54/63/27 10/46/27
f 29/49/28 83/64/28 30/65/28
f 2/66/29 68/67/29 3/50/29
f 36/53/30 96/68/30 37/60/30
f 16/55/31 57/69/31 17/70/31
f 43/71/32 82/72/32 44/56/32
f 23/59/33 71/73/33 24/74/33
f 8/75/34 56/76/34 9/62/34
f 30/65/35 85/77/35 31/78/35
f 1/79/36 70/80/36 2/66/36
f 17/70/37 59/81/37 18/82/37
f 42/83/38 84/84/38 43/71/38
f 24/74/39 73/85/39 25/86/39
f 7/87/40 58/88/40 8/75/40
f 31/78/41 87/89/41 32/90/41
f 48/91/42 72/92/42 1/79/42
f 18/82/43 61/93/43 19/94/43
f 41/95/44 86/96/44 42/83/44
f 25/86/45 75/97/45 26/10/45
f 6/15/46 60/98/46 7/87/46
f 32/90/47 89/99/47 33/16/47
f 47/23/48 74/100/48 48/91/48
f 19/94/49 63/101/49 20/24/49
f 40/29/50 88/102/50 41/95/50
f 13/103/1 14/104/1 17/105/1
f 14/104/1 15/106/1 16/107/1
f 17/105/1 14/104/1 16/107/1
f 17/105/1 18/108/1 13/103/1
f 18/108/1 19/109/1 13/103/1
f 19/109/1 20/110/1 25/111/1
f 20/110/1 21/112/1 25/111/1
f 21/112/1 22/113/1 24/114/1
f 22/113/1 23/115/1 24/114/1
f 24/114/1 25/111/1 21/112/1
f 25/111/1 26/116/1 29/117/1
f 26/116/1 27/118/1 28/119/1
f 29/117/1 26/116/1 28/119/1
f 29/117/1 30/120/1 25/111/1
f 30/120/1 31/121/1 25/111/1
f 31/121/1 32/122/1 37/123/1
f 32/122/1 33/124/1 37/123/1
f 33/124/1 34/125/1 36/126/1
f 34/125/1 35/127/1 36/126/1
f 36/126/1 37/123/1 33/124/1
f 37/123/1 38/128/1 41/129/1
f 38/128/1 39/130/1 40/131/1
f 41/129/1 38/128/1 40/131/1
f 41/129/1 42/132/1 37/123/1
f 42/132/1 43/3/1 37/123/1
f 43/3/1 44/133/1 1/1/1
f 44/133/1 45/134/1 1/1/1
f 45/134/1 46/135/1 48/136/1
f 46/135/1 47/137/1 48/136/1
f 48/136/1 1/1/1 45/134/1
f 1/1/1 2/138/1 5/139/1
f 2/138/1 3/140/1 4/141/1
f 5/139/1 2/138/1 4/141/1
f 5/139/1 6/142/1 1/1/1
f 6/142/1 7/2/1 1/1/1
f 7/2/1 8/143/1 13/103/1
f 8/143/1 9/144/1 13/103/1
f 9/144/1 10/145/1 12/146/1
f 10/145/1 11/147/1 12/146/1
f 12/146/1 13/103/1 9/144/1
f 13/103/1 19/109/1 7/2/1
f 37/123/1 43/3/1 31/121/1
f 19/109/1 25/111/1 31/121/1
f 19/109/1 43/3/1 7/2/1
f 43/3/1 19/109/1 31/121/1
f 53/148/2 51/149/2 55/150/2
f 51/149/2 50/151/2 57/152/2
f 50/151/2 49/153/2 56/154/2
f 49/153/2 52/155/2 54/156/2
f 56/154/2 49/153/2 54/156/2
f 56/154/2 58/157/2 50/151/2
f 58/157/2 60/5/2 50/151/2
f 60/5/2 62/158/2 72/159/2
f 62/158/2 64/160/2 72/159/2
f 64/160/2 66/161/2 70/162/2
f 66/161/2 68/163/2 70/162/2
f 70/162/2 72/159/2 64/160/2
f 72/159/2 74/164/2 80/165/2
f 74/164/2 76/166/2 78/167/2
f 80/165/2 74/164/2 78/167/2
f 80/165/2 82/168/2 72/159/2
f 82/168/2 84/6/2 72/159/2
f 84/6/2 86/169/2 96/170/2
f 86/169/2 88/171/2 96/170/2
f 88/171/2 90/172/2 94/173/2
f 90/172/2 92/174/2 94/173/2
f 94/173/2 96/170/2 88/171/2
f 96/170/2 95/175/2 89/176/2
f 95/175/2 93/177/2 91/178/2
f 89/176/2 95/175/2 91/178/2
f 89/176/2 87/179/2 96/170/2
f 87/179/2 85/4/2 96/170/2
f 85/4/2 83/180/2 73/181/2
f 83/180/2 81/182/2 73/181/2
f 81/182/2 79/183/2 75/184/2
f 79/183/2 77/185/2 75/184/2
f 75/184/2 73/181/2 81/182/2
f 73/181/2 71/186/2 65/187/2
f 71/186/2 69/188/2 67/189/2
f 65/187/2 71/186/2 67/189/2
f 65/187/2 63/190/2 73/181/2
f 63/190/2 61/191/2 73/181/2
f 61/191/2 59/192/2 50/151/2
f 59/192/2 57/152/2 50/151/2
f 57/152/2 55/150/2 51/149/2
f 60/5/2 72/159/2 84/6/2
f 85/4/2 73/181/2 61/191/2
f 50/151/2 60/5/2 61/191/2
f 85/4/2 84/6/2 96/170/2
f 85/4/2 61/191/2 60/5/2
f 12/7/3 49/31/3 50/8/3
f 26/10/4 75/97/4 77/11/4
f 5/13/5 64/35/5 62/14/5
f 33/16/6 89/99/6 91/17/6
f 13/9/7 50/8/7 51/19/7
f 46/21/8 78/41/8 76/22/8
f 20/24/9 63/101/9 65/25/9
f 39/27/10 92/45/10 90/28/10
f 11/30/11 52/47/11 49/31/11
f 27/12/12 77/11/12 79/32/12
f 4/34/13 66/51/13 64/35/13
f 34/18/14 91/17/14 93/36/14
f 14/20/15 51/19/15 53/38/15
f 45/40/16 80/57/16 78/41/16
f 21/26/17 65/25/17 67/42/17
f 38/44/18 94/61/18 92/45/18
f 10/46/19 54/63/19 52/47/19
f 28/33/20 79/32/20 81/48/20
f 3/50/21 68/67/21 66/51/21
f 35/37/22 93/36/22 95/52/22
f 15/39/23 53/38/23 55/54/23
f 44/56/24 82/72/24 80/57/24
f 22/43/25 67/42/25 69/58/25
f 37/60/26 96/68/26 94/61/26
f 9/62/27 56/76/27 54/63/27
f 29/49/28 81/48/28 83/64/28
f 2/66/29 70/80/29 68/67/29
f 36/53/30 95/52/30 96/68/30
f 16/55/31 55/54/31 57/69/31
f 43/71/32 84/84/32 82/72/32
f 23/59/33 69/58/33 71/73/33
f 8/75/34 58/88/34 56/76/34
f 30/65/35 83/64/35 85/77/35
f 1/79/36 72/92/36 70/80/36
f 17/70/37 57/69/37 59/81/37
f 42/83/38 86/96/38 84/84/38
f 24/74/39 71/73/39 73/85/39
f 7/87/40 60/98/40 58/88/40
f 31/78/41 85/77/41 87/89/41
f 48/91/42 74/100/42 72/92/42
f 18/82/43 59/81/43 61/93/43
f 41/95/44 88/102/44 86/96/44
f 25/86/45 73/85/45 75/97/45
f 6/15/46 62/14/46 60/98/46
f 32/90/47 87/89/47 89/99/47
f 47/23/48 76/22/48 74/100/48
f 19/94/49 61/93/49 63/101/49
f 40/29/50 90/28/50 88/102/50
