# Blender v2.82 (sub 7) OBJ File: 'countersheet3.blend'
# www.blender.org
mtllib Curve_014.mtl
o Curve.014_Curve.793
v -0.500142 -0.019685 0.000000
v -0.495574 -0.019685 -0.067822
v -0.482266 -0.019685 -0.132880
v -0.460818 -0.019685 -0.194576
v -0.431826 -0.019685 -0.252315
v -0.395888 -0.019685 -0.305497
v -0.353601 -0.019685 -0.353526
v -0.305562 -0.019685 -0.395804
v -0.252368 -0.019685 -0.431735
v -0.194618 -0.019685 -0.460721
v -0.132908 -0.019685 -0.482165
v -0.067837 -0.019685 -0.495469
v 0.000000 -0.019685 -0.500036
v 0.067836 -0.019685 -0.495469
v 0.132908 -0.019685 -0.482165
v 0.194617 -0.019685 -0.460721
v 0.252368 -0.019685 -0.431735
v 0.305561 -0.019685 -0.395804
v 0.353600 -0.019685 -0.353526
v 0.395887 -0.019685 -0.305496
v 0.431826 -0.019685 -0.252315
v 0.460818 -0.019685 -0.194576
v 0.482266 -0.019685 -0.132880
v 0.495573 -0.019685 -0.067822
v 0.500142 -0.019685 0.000000
v 0.495574 -0.019685 0.067822
v 0.482266 -0.019685 0.132880
v 0.460818 -0.019685 0.194577
v 0.431826 -0.019685 0.252314
v 0.395888 -0.019685 0.305497
v 0.353600 -0.019685 0.353526
v 0.305561 -0.019685 0.395804
v 0.252368 -0.019685 0.431735
v 0.194618 -0.019685 0.460721
v 0.132908 -0.019685 0.482165
v 0.067837 -0.019685 0.495469
v 0.000000 -0.019685 0.500036
v -0.067836 -0.019685 0.495469
v -0.132908 -0.019685 0.482165
v -0.194617 -0.019685 0.460721
v -0.252367 -0.019685 0.431735
v -0.305561 -0.019685 0.395804
v -0.353600 -0.019685 0.353526
v -0.395887 -0.019685 0.305496
v -0.431826 -0.019685 0.252314
v -0.460818 -0.019685 0.194577
v -0.482266 -0.019685 0.132880
v -0.495573 -0.019685 0.067822
v -0.067837 0.019685 -0.495469
v 0.000000 0.019685 -0.500036
v 0.067836 0.019685 -0.495469
v -0.132908 0.019685 -0.482165
v 0.132908 0.019685 -0.482165
v -0.194618 0.019685 -0.460721
v 0.194617 0.019685 -0.460721
v -0.252368 0.019685 -0.431735
v 0.252368 0.019685 -0.431735
v -0.305562 0.019685 -0.395804
v 0.305561 0.019685 -0.395804
v -0.353601 0.019685 -0.353526
v 0.353600 0.019685 -0.353526
v -0.395888 0.019685 -0.305497
v 0.395887 0.019685 -0.305496
v -0.431826 0.019685 -0.252315
v 0.431826 0.019685 -0.252315
v -0.460818 0.019685 -0.194576
v 0.460818 0.019685 -0.194576
v -0.482266 0.019685 -0.132880
v 0.482266 0.019685 -0.132880
v -0.495574 0.019685 -0.067822
v 0.495573 0.019685 -0.067822
v -0.500142 0.019685 0.000000
v 0.500142 0.019685 0.000000
v -0.495573 0.019685 0.067822
v 0.495574 0.019685 0.067822
v -0.482266 0.019685 0.132880
v 0.482266 0.019685 0.132880
v -0.460818 0.019685 0.194577
v 0.460818 0.019685 0.194577
v -0.431826 0.019685 0.252314
v 0.431826 0.019685 0.252314
v -0.395887 0.019685 0.305496
v 0.395888 0.019685 0.305497
v -0.353600 0.019685 0.353526
v 0.353600 0.019685 0.353526
v -0.305561 0.019685 0.395804
v 0.305561 0.019685 0.395804
v -0.252367 0.019685 0.431735
v 0.252368 0.019685 0.431735
v -0.194617 0.019685 0.460721
v 0.194618 0.019685 0.460721
v -0.132908 0.019685 0.482165
v 0.132908 0.019685 0.482165
v -0.067836 0.019685 0.495469
v 0.067837 0.019685 0.495469
v 0.000000 0.019685 0.500036
vt 0.720229 0.425867
vt 0.706877 0.467541
vt 0.706877 0.384193
vt 0.339848 0.384988
vt 0.275637 0.468050
vt 0.275637 0.384988
vt 0.275775 0.035690
vt 0.276765 0.035690
vt 0.276765 0.035690
vt 0.248073 0.035690
vt 0.249062 0.035690
vt 0.249062 0.035690
vt 0.267860 0.035690
vt 0.268850 0.035690
vt 0.268850 0.035690
vt 0.241147 0.035690
vt 0.242137 0.035690
vt 0.242137 0.035690
vt 0.274786 0.035690
vt 0.275775 0.035690
vt 0.254998 0.035690
vt 0.255988 0.035690
vt 0.255988 0.035690
vt 0.281711 0.035690
vt 0.282701 0.035690
vt 0.282701 0.035690
vt 0.261924 0.035690
vt 0.262913 0.035690
vt 0.262913 0.035690
vt 0.247083 0.035690
vt 0.248073 0.035690
vt 0.269839 0.035690
vt 0.269839 0.035690
vt 0.240158 0.035690
vt 0.241147 0.035690
vt 0.256977 0.035690
vt 0.256977 0.035690
vt 0.280722 0.035690
vt 0.281711 0.035690
vt 0.263903 0.035690
vt 0.263903 0.035690
vt 0.246094 0.035690
vt 0.247083 0.035690
vt 0.270828 0.035690
vt 0.270828 0.035690
vt 0.286658 0.035690
vt 0.240158 0.035690
vt 0.257967 0.035690
vt 0.257967 0.035690
vt 0.279733 0.035690
vt 0.280722 0.035690
vt 0.264892 0.035690
vt 0.264892 0.035690
vt 0.245105 0.035690
vt 0.246094 0.035690
vt 0.271818 0.035690
vt 0.271818 0.035690
vt 0.285669 0.035690
vt 0.286658 0.035690
vt 0.258956 0.035690
vt 0.258956 0.035690
vt 0.278743 0.035690
vt 0.279733 0.035690
vt 0.251041 0.035690
vt 0.252030 0.035690
vt 0.252030 0.035690
vt 0.265882 0.035690
vt 0.265882 0.035690
vt 0.244115 0.035690
vt 0.245105 0.035690
vt 0.272807 0.035690
vt 0.272807 0.035690
vt 0.253020 0.035690
vt 0.253020 0.035690
vt 0.284680 0.035690
vt 0.285669 0.035690
vt 0.259945 0.035690
vt 0.259945 0.035690
vt 0.277754 0.035690
vt 0.278743 0.035690
vt 0.250052 0.035690
vt 0.251041 0.035690
vt 0.266871 0.035690
vt 0.266871 0.035690
vt 0.243126 0.035690
vt 0.244115 0.035690
vt 0.273796 0.035690
vt 0.273796 0.035690
vt 0.254009 0.035690
vt 0.254009 0.035690
vt 0.283690 0.035690
vt 0.284680 0.035690
vt 0.260935 0.035690
vt 0.260935 0.035690
vt 0.277754 0.035690
vt 0.250052 0.035690
vt 0.267860 0.035690
vt 0.243126 0.035690
vt 0.274786 0.035690
vt 0.254998 0.035690
vt 0.283690 0.035690
vt 0.261924 0.035690
vt 0.674661 0.484812
vt 0.668480 0.484274
vt 0.651668 0.476761
vt 0.662552 0.482705
vt 0.656929 0.480178
vt 0.646821 0.472525
vt 0.642444 0.467541
vt 0.638592 0.461879
vt 0.629093 0.425867
vt 0.635317 0.455610
vt 0.632676 0.448804
vt 0.629509 0.433862
vt 0.630722 0.441531
vt 0.629509 0.417872
vt 0.635317 0.396124
vt 0.630722 0.410203
vt 0.632676 0.402930
vt 0.638592 0.389855
vt 0.642444 0.384193
vt 0.646821 0.379209
vt 0.674661 0.366922
vt 0.651668 0.374973
vt 0.656929 0.371556
vt 0.668480 0.367460
vt 0.662552 0.369029
vt 0.680841 0.367460
vt 0.697654 0.374974
vt 0.686770 0.369029
vt 0.692392 0.371557
vt 0.702500 0.379209
vt 0.710730 0.389855
vt 0.714004 0.396124
vt 0.716646 0.402930
vt 0.719812 0.417872
vt 0.718600 0.410203
vt 0.719812 0.433862
vt 0.714004 0.455610
vt 0.718600 0.441531
vt 0.716646 0.448804
vt 0.710730 0.461879
vt 0.702500 0.472525
vt 0.697654 0.476761
vt 0.692392 0.480178
vt 0.680841 0.484274
vt 0.686770 0.482705
vt 0.319810 0.483162
vt 0.313902 0.484725
vt 0.325413 0.480643
vt 0.307743 0.485262
vt 0.330657 0.477238
vt 0.301583 0.484725
vt 0.284828 0.477238
vt 0.295675 0.483162
vt 0.290072 0.480643
vt 0.279998 0.473017
vt 0.271797 0.462408
vt 0.262331 0.426519
vt 0.268534 0.456160
vt 0.265902 0.449377
vt 0.262746 0.434486
vt 0.263954 0.442129
vt 0.262746 0.418551
vt 0.268534 0.396878
vt 0.263954 0.410908
vt 0.265902 0.403661
vt 0.271797 0.390630
vt 0.279999 0.380021
vt 0.307743 0.367776
vt 0.284828 0.375800
vt 0.290072 0.372395
vt 0.301583 0.368313
vt 0.295675 0.369876
vt 0.313902 0.368313
vt 0.330657 0.375800
vt 0.319810 0.369876
vt 0.325413 0.372395
vt 0.335487 0.380021
vt 0.343688 0.390630
vt 0.353154 0.426519
vt 0.346951 0.396878
vt 0.349583 0.403661
vt 0.352739 0.418551
vt 0.351531 0.410908
vt 0.352739 0.434486
vt 0.346951 0.456160
vt 0.351531 0.442129
vt 0.349583 0.449377
vt 0.343688 0.462408
vt 0.339848 0.468050
vt 0.335487 0.473017
vn 0.0000 -1.0000 0.0000
vn 0.0000 1.0000 -0.0000
vn -0.0672 0.0000 0.9977
vn -0.4486 0.0000 -0.8937
vn 0.8286 0.0000 0.5599
vn -0.9797 0.0000 -0.2004
vn 0.0672 0.0000 0.9977
vn 0.4486 0.0000 -0.8937
vn -0.7505 0.0000 0.6608
vn 0.9797 0.0000 -0.2004
vn -0.5597 0.0000 -0.8287
vn 0.7505 0.0000 0.6608
vn -0.9977 0.0000 -0.0672
vn 0.5597 0.0000 -0.8287
vn -0.6607 0.0000 0.7507
vn 0.9977 0.0000 -0.0672
vn -0.6607 0.0000 -0.7507
vn 0.6607 0.0000 0.7507
vn -0.9977 0.0000 0.0672
vn 0.6607 0.0000 -0.7507
vn -0.5597 0.0000 0.8287
vn 0.9977 0.0000 0.0672
vn -0.7505 0.0000 -0.6608
vn 0.5597 0.0000 0.8287
vn -0.9797 0.0000 0.2004
vn 0.7505 0.0000 -0.6608
vn -0.4486 0.0000 0.8937
vn -0.0672 0.0000 -0.9977
vn 0.9797 0.0000 0.2004
vn -0.8286 0.0000 -0.5599
vn 0.4486 0.0000 0.8937
vn 0.0672 0.0000 -0.9977
vn -0.9446 0.0000 0.3284
vn 0.8286 0.0000 -0.5599
vn -0.3282 0.0000 0.9446
vn -0.2003 0.0000 -0.9797
vn 0.9446 0.0000 0.3284
vn -0.8937 0.0000 -0.4487
vn 0.3282 0.0000 0.9446
vn 0.2003 0.0000 -0.9797
vn -0.8937 0.0000 0.4487
vn 0.8937 0.0000 -0.4487
vn -0.2003 0.0000 0.9797
vn -0.3282 0.0000 -0.9446
vn 0.8937 0.0000 0.4487
vn -0.9446 0.0000 -0.3284
vn 0.2003 0.0000 0.9797
vn 0.3282 0.0000 -0.9446
vn -0.8286 0.0000 0.5599
vn 0.9446 0.0000 -0.3284
usemtl SVGMat.008
s off
f 1/1/1 7/2/1 43/3/1
f 85/4/2 60/5/2 84/6/2
f 37/7/3 94/8/3 38/9/3
f 9/10/4 54/11/4 10/12/4
f 29/13/5 83/14/5 30/15/5
f 2/16/6 68/17/6 3/18/6
f 36/19/7 96/20/7 37/7/7
f 16/21/8 57/22/8 17/23/8
f 43/24/9 82/25/9 44/26/9
f 23/27/10 71/28/10 24/29/10
f 8/30/11 56/31/11 9/10/11
f 30/15/12 85/32/12 31/33/12
f 1/34/13 70/35/13 2/16/13
f 17/23/14 59/36/14 18/37/14
f 42/38/15 84/39/15 43/24/15
f 24/29/16 73/40/16 25/41/16
f 7/42/17 58/43/17 8/30/17
f 31/33/18 87/44/18 32/45/18
f 48/46/19 72/47/19 1/34/19
f 18/37/20 61/48/20 19/49/20
f 41/50/21 86/51/21 42/38/21
f 25/41/22 75/52/22 26/53/22
f 6/54/23 60/55/23 7/42/23
f 32/45/24 89/56/24 33/57/24
f 47/58/25 74/59/25 48/46/25
f 19/49/26 63/60/26 20/61/26
f 40/62/27 88/63/27 41/50/27
f 12/64/28 50/65/28 13/66/28
f 26/53/29 77/67/29 27/68/29
f 5/69/30 62/70/30 6/54/30
f 33/57/31 91/71/31 34/72/31
f 13/66/32 51/73/32 14/74/32
f 46/75/33 76/76/33 47/58/33
f 20/61/34 65/77/34 21/78/34
f 39/79/35 90/80/35 40/62/35
f 11/81/36 49/82/36 12/64/36
f 27/68/37 79/83/37 28/84/37
f 4/85/38 64/86/38 5/69/38
f 34/72/39 93/87/39 35/88/39
f 14/74/40 53/89/40 15/90/40
f 45/91/41 78/92/41 46/75/41
f 21/78/42 67/93/42 22/94/42
f 38/9/43 92/95/43 39/79/43
f 10/12/44 52/96/44 11/81/44
f 28/84/45 81/97/45 29/13/45
f 3/18/46 66/98/46 4/85/46
f 35/88/47 95/99/47 36/19/47
f 15/90/48 55/100/48 16/21/48
f 44/26/49 80/101/49 45/91/49
f 22/94/50 69/102/50 23/27/50
f 13/103/1 14/104/1 17/105/1
f 14/104/1 15/106/1 16/107/1
f 17/105/1 14/104/1 16/107/1
f 17/105/1 18/108/1 13/103/1
f 18/108/1 19/109/1 13/103/1
f 19/109/1 20/110/1 25/111/1
f 20/110/1 21/112/1 25/111/1
f 21/112/1 22/113/1 24/114/1
f 22/113/1 23/115/1 24/114/1
f 24/114/1 25/111/1 21/112/1
f 25/111/1 26/116/1 29/117/1
f 26/116/1 27/118/1 28/119/1
f 29/117/1 26/116/1 28/119/1
f 29/117/1 30/120/1 25/111/1
f 30/120/1 31/121/1 25/111/1
f 31/121/1 32/122/1 37/123/1
f 32/122/1 33/124/1 37/123/1
f 33/124/1 34/125/1 36/126/1
f 34/125/1 35/127/1 36/126/1
f 36/126/1 37/123/1 33/124/1
f 37/123/1 38/128/1 41/129/1
f 38/128/1 39/130/1 40/131/1
f 41/129/1 38/128/1 40/131/1
f 41/129/1 42/132/1 37/123/1
f 42/132/1 43/3/1 37/123/1
f 43/3/1 44/133/1 1/1/1
f 44/133/1 45/134/1 1/1/1
f 45/134/1 46/135/1 48/136/1
f 46/135/1 47/137/1 48/136/1
f 48/136/1 1/1/1 45/134/1
f 1/1/1 2/138/1 5/139/1
f 2/138/1 3/140/1 4/141/1
f 5/139/1 2/138/1 4/141/1
f 5/139/1 6/142/1 1/1/1
f 6/142/1 7/2/1 1/1/1
f 7/2/1 8/143/1 13/103/1
f 8/143/1 9/144/1 13/103/1
f 9/144/1 10/145/1 12/146/1
f 10/145/1 11/147/1 12/146/1
f 12/146/1 13/103/1 9/144/1
f 13/103/1 19/109/1 7/2/1
f 37/123/1 43/3/1 31/121/1
f 19/109/1 25/111/1 31/121/1
f 19/109/1 43/3/1 7/2/1
f 43/3/1 19/109/1 31/121/1
f 53/148/2 51/149/2 55/150/2
f 51/149/2 50/151/2 57/152/2
f 50/151/2 49/153/2 56/154/2
f 49/153/2 52/155/2 54/156/2
f 56/154/2 49/153/2 54/156/2
f 56/154/2 58/157/2 50/151/2
f 58/157/2 60/5/2 50/151/2
f 60/5/2 62/158/2 72/159/2
f 62/158/2 64/160/2 72/159/2
f 64/160/2 66/161/2 70/162/2
f 66/161/2 68/163/2 70/162/2
f 70/162/2 72/159/2 64/160/2
f 72/159/2 74/164/2 80/165/2
f 74/164/2 76/166/2 78/167/2
f 80/165/2 74/164/2 78/167/2
f 80/165/2 82/168/2 72/159/2
f 82/168/2 84/6/2 72/159/2
f 84/6/2 86/169/2 96/170/2
f 86/169/2 88/171/2 96/170/2
f 88/171/2 90/172/2 94/173/2
f 90/172/2 92/174/2 94/173/2
f 94/173/2 96/170/2 88/171/2
f 96/170/2 95/175/2 89/176/2
f 95/175/2 93/177/2 91/178/2
f 89/176/2 95/175/2 91/178/2
f 89/176/2 87/179/2 96/170/2
f 87/179/2 85/4/2 96/170/2
f 85/4/2 83/180/2 73/181/2
f 83/180/2 81/182/2 73/181/2
f 81/182/2 79/183/2 75/184/2
f 79/183/2 77/185/2 75/184/2
f 75/184/2 73/181/2 81/182/2
f 73/181/2 71/186/2 65/187/2
f 71/186/2 69/188/2 67/189/2
f 65/187/2 71/186/2 67/189/2
f 65/187/2 63/190/2 73/181/2
f 63/190/2 61/191/2 73/181/2
f 61/191/2 59/192/2 50/151/2
f 59/192/2 57/152/2 50/151/2
f 57/152/2 55/150/2 51/149/2
f 60/5/2 72/159/2 84/6/2
f 85/4/2 73/181/2 61/191/2
f 50/151/2 60/5/2 61/191/2
f 85/4/2 84/6/2 96/170/2
f 85/4/2 61/191/2 60/5/2
f 37/7/3 96/20/3 94/8/3
f 9/10/4 56/31/4 54/11/4
f 29/13/5 81/97/5 83/14/5
f 2/16/6 70/35/6 68/17/6
f 36/19/7 95/99/7 96/20/7
f 16/21/8 55/100/8 57/22/8
f 43/24/9 84/39/9 82/25/9
f 23/27/10 69/102/10 71/28/10
f 8/30/11 58/43/11 56/31/11
f 30/15/12 83/14/12 85/32/12
f 1/34/13 72/47/13 70/35/13
f 17/23/14 57/22/14 59/36/14
f 42/38/15 86/51/15 84/39/15
f 24/29/16 71/28/16 73/40/16
f 7/42/17 60/55/17 58/43/17
f 31/33/18 85/32/18 87/44/18
f 48/46/19 74/59/19 72/47/19
f 18/37/20 59/36/20 61/48/20
f 41/50/21 88/63/21 86/51/21
f 25/41/22 73/40/22 75/52/22
f 6/54/23 62/70/23 60/55/23
f 32/45/24 87/44/24 89/56/24
f 47/58/25 76/76/25 74/59/25
f 19/49/26 61/48/26 63/60/26
f 40/62/27 90/80/27 88/63/27
f 12/64/28 49/82/28 50/65/28
f 26/53/29 75/52/29 77/67/29
f 5/69/30 64/86/30 62/70/30
f 33/57/31 89/56/31 91/71/31
f 13/66/32 50/65/32 51/73/32
f 46/75/33 78/92/33 76/76/33
f 20/61/34 63/60/34 65/77/34
f 39/79/35 92/95/35 90/80/35
f 11/81/36 52/96/36 49/82/36
f 27/68/37 77/67/37 79/83/37
f 4/85/38 66/98/38 64/86/38
f 34/72/39 91/71/39 93/87/39
f 14/74/40 51/73/40 53/89/40
f 45/91/41 80/101/41 78/92/41
f 21/78/42 65/77/42 67/93/42
f 38/9/43 94/8/43 92/95/43
f 10/12/44 54/11/44 52/96/44
f 28/84/45 79/83/45 81/97/45
f 3/18/46 68/17/46 66/98/46
f 35/88/47 93/87/47 95/99/47
f 15/90/48 53/89/48 55/100/48
f 44/26/49 82/25/49 80/101/49
f 22/94/50 67/93/50 69/102/50
