# Blender v2.82 (sub 7) OBJ File: 'countersheet3.blend'
# www.blender.org
mtllib Curve_025.mtl
o Curve.025_Curve.804
v -0.500142 -0.019685 -0.500035
v 0.500142 -0.019685 -0.500035
v 0.500142 -0.019685 0.500035
v -0.500142 -0.019685 0.500035
v -0.500142 0.019685 -0.500035
v -0.500142 0.019685 0.500035
v 0.500142 0.019685 -0.500035
v 0.500142 0.019685 0.500035
vt 0.596284 0.194214
vt 0.505149 0.076324
vt 0.596284 0.076324
vt 0.385850 0.195661
vt 0.476673 0.078176
vt 0.476673 0.195661
vt 0.255658 0.035690
vt 0.271158 0.035690
vt 0.271158 0.035690
vt 0.240158 0.035690
vt 0.255658 0.035690
vt 0.286658 0.035690
vt 0.286658 0.035690
vt 0.240158 0.035690
vt 0.505149 0.194214
vt 0.385850 0.078176
vn 0.0000 -1.0000 0.0000
vn 0.0000 1.0000 0.0000
vn 1.0000 0.0000 0.0000
vn 0.0000 0.0000 -1.0000
vn 0.0000 0.0000 1.0000
vn -1.0000 0.0000 0.0000
usemtl SVGMat.008
s off
f 3/1/1 1/2/1 2/3/1
f 5/4/2 8/5/2 7/6/2
f 2/7/3 8/8/3 3/9/3
f 1/10/4 7/11/4 2/7/4
f 3/9/5 6/12/5 4/13/5
f 4/13/6 5/14/6 1/10/6
f 3/1/1 4/15/1 1/2/1
f 5/4/2 6/16/2 8/5/2
f 2/7/3 7/11/3 8/8/3
f 1/10/4 5/14/4 7/11/4
f 3/9/5 8/8/5 6/12/5
f 4/13/6 6/12/6 5/14/6
