# Blender v2.82 (sub 7) OBJ File: 'countersheet3.blend'
# www.blender.org
mtllib Curve.mtl
o Curve_Curve.779
v -0.500142 -0.019685 -0.000000
v -0.495574 -0.019685 -0.067822
v -0.482266 -0.019685 -0.132880
v -0.460818 -0.019685 -0.194577
v -0.431826 -0.019685 -0.252315
v -0.395888 -0.019685 -0.305497
v -0.353600 -0.019685 -0.353527
v -0.305561 -0.019685 -0.395805
v -0.252368 -0.019685 -0.431736
v -0.194618 -0.019685 -0.460722
v -0.132908 -0.019685 -0.482165
v -0.067836 -0.019685 -0.495470
v 0.000000 -0.019685 -0.500036
v 0.067836 -0.019685 -0.495469
v 0.132908 -0.019685 -0.482165
v 0.194618 -0.019685 -0.460721
v 0.252368 -0.019685 -0.431735
v 0.305561 -0.019685 -0.395804
v 0.353600 -0.019685 -0.353526
v 0.395888 -0.019685 -0.305497
v 0.431826 -0.019685 -0.252315
v 0.460818 -0.019685 -0.194576
v 0.482266 -0.019685 -0.132880
v 0.495574 -0.019685 -0.067822
v 0.500142 -0.019685 -0.000000
v 0.495574 -0.019685 0.067822
v 0.482266 -0.019685 0.132880
v 0.460818 -0.019685 0.194577
v 0.431826 -0.019685 0.252315
v 0.395888 -0.019685 0.305498
v 0.353600 -0.019685 0.353527
v 0.305561 -0.019685 0.395805
v 0.252368 -0.019685 0.431736
v 0.194618 -0.019685 0.460722
v 0.132908 -0.019685 0.482166
v 0.067837 -0.019685 0.495470
v 0.000000 -0.019685 0.500036
v -0.067836 -0.019685 0.495469
v -0.132908 -0.019685 0.482165
v -0.194618 -0.019685 0.460721
v -0.252368 -0.019685 0.431735
v -0.305561 -0.019685 0.395805
v -0.353600 -0.019685 0.353526
v -0.395888 -0.019685 0.305497
v -0.431826 -0.019685 0.252315
v -0.460818 -0.019685 0.194576
v -0.482266 -0.019685 0.132880
v -0.495574 -0.019685 0.067821
v -0.067836 0.019685 -0.495470
v 0.000000 0.019685 -0.500036
v 0.067836 0.019685 -0.495469
v -0.132908 0.019685 -0.482165
v 0.132908 0.019685 -0.482165
v -0.194618 0.019685 -0.460722
v 0.194618 0.019685 -0.460721
v -0.252368 0.019685 -0.431736
v 0.252368 0.019685 -0.431735
v -0.305561 0.019685 -0.395805
v 0.305561 0.019685 -0.395804
v -0.353600 0.019685 -0.353527
v 0.353600 0.019685 -0.353526
v -0.395888 0.019685 -0.305497
v 0.395888 0.019685 -0.305497
v -0.431826 0.019685 -0.252315
v 0.431826 0.019685 -0.252315
v -0.460818 0.019685 -0.194577
v 0.460818 0.019685 -0.194576
v -0.482266 0.019685 -0.132880
v 0.482266 0.019685 -0.132880
v -0.495574 0.019685 -0.067822
v 0.495574 0.019685 -0.067822
v -0.500142 0.019685 -0.000000
v 0.500142 0.019685 -0.000000
v -0.495574 0.019685 0.067821
v 0.495574 0.019685 0.067822
v -0.482266 0.019685 0.132880
v 0.482266 0.019685 0.132880
v -0.460818 0.019685 0.194576
v 0.460818 0.019685 0.194577
v -0.431826 0.019685 0.252315
v 0.431826 0.019685 0.252315
v -0.395888 0.019685 0.305497
v 0.395888 0.019685 0.305498
v -0.353600 0.019685 0.353526
v 0.353600 0.019685 0.353527
v -0.305561 0.019685 0.395805
v 0.305561 0.019685 0.395805
v -0.252368 0.019685 0.431735
v 0.252368 0.019685 0.431736
v -0.194618 0.019685 0.460721
v 0.194618 0.019685 0.460722
v -0.132908 0.019685 0.482165
v 0.132908 0.019685 0.482166
v -0.067836 0.019685 0.495469
v 0.067837 0.019685 0.495470
v 0.000000 0.019685 0.500036
vt 0.954143 0.868151
vt 0.940792 0.909826
vt 0.940792 0.826477
vt 0.106736 0.825754
vt 0.042525 0.908816
vt 0.042525 0.825754
vt 0.258956 0.035690
vt 0.259945 0.035690
vt 0.259945 0.035690
vt 0.277754 0.035690
vt 0.278743 0.035690
vt 0.278743 0.035690
vt 0.250052 0.035690
vt 0.251041 0.035690
vt 0.251041 0.035690
vt 0.265882 0.035690
vt 0.266871 0.035690
vt 0.266871 0.035690
vt 0.243126 0.035690
vt 0.244115 0.035690
vt 0.244115 0.035690
vt 0.272807 0.035690
vt 0.273797 0.035690
vt 0.273797 0.035690
vt 0.253020 0.035690
vt 0.254009 0.035690
vt 0.254009 0.035690
vt 0.283690 0.035690
vt 0.284680 0.035690
vt 0.284680 0.035690
vt 0.260935 0.035690
vt 0.260935 0.035690
vt 0.276765 0.035690
vt 0.277754 0.035690
vt 0.249062 0.035690
vt 0.250052 0.035690
vt 0.267860 0.035690
vt 0.267860 0.035690
vt 0.242137 0.035690
vt 0.243126 0.035690
vt 0.274786 0.035690
vt 0.274786 0.035690
vt 0.254999 0.035690
vt 0.254999 0.035690
vt 0.282701 0.035690
vt 0.283690 0.035690
vt 0.261924 0.035690
vt 0.261924 0.035690
vt 0.275775 0.035690
vt 0.276765 0.035690
vt 0.248073 0.035690
vt 0.249062 0.035690
vt 0.268850 0.035690
vt 0.268850 0.035690
vt 0.241147 0.035690
vt 0.242137 0.035690
vt 0.275775 0.035690
vt 0.255988 0.035690
vt 0.255988 0.035690
vt 0.281712 0.035690
vt 0.282701 0.035690
vt 0.262914 0.035690
vt 0.262914 0.035690
vt 0.247084 0.035690
vt 0.248073 0.035690
vt 0.269839 0.035690
vt 0.269839 0.035690
vt 0.240158 0.035690
vt 0.241147 0.035690
vt 0.256977 0.035690
vt 0.256977 0.035690
vt 0.280722 0.035690
vt 0.281712 0.035690
vt 0.263903 0.035690
vt 0.263903 0.035690
vt 0.246094 0.035690
vt 0.247084 0.035690
vt 0.270829 0.035690
vt 0.270829 0.035690
vt 0.286658 0.035690
vt 0.240158 0.035690
vt 0.257967 0.035690
vt 0.257967 0.035690
vt 0.279733 0.035690
vt 0.280722 0.035690
vt 0.264892 0.035690
vt 0.264892 0.035690
vt 0.245105 0.035690
vt 0.246094 0.035690
vt 0.271818 0.035690
vt 0.271818 0.035690
vt 0.285669 0.035690
vt 0.286658 0.035690
vt 0.258956 0.035690
vt 0.279733 0.035690
vt 0.252030 0.035690
vt 0.252030 0.035690
vt 0.265882 0.035690
vt 0.245105 0.035690
vt 0.272807 0.035690
vt 0.253020 0.035690
vt 0.285669 0.035690
vt 0.908576 0.927096
vt 0.902395 0.926558
vt 0.885582 0.919045
vt 0.896466 0.924990
vt 0.890844 0.922462
vt 0.880736 0.914809
vt 0.876359 0.909825
vt 0.872506 0.904164
vt 0.863008 0.868151
vt 0.869232 0.897895
vt 0.866590 0.891088
vt 0.863424 0.876146
vt 0.864636 0.883815
vt 0.863424 0.860156
vt 0.869232 0.838408
vt 0.864636 0.852487
vt 0.866590 0.845214
vt 0.872506 0.832139
vt 0.876359 0.826477
vt 0.880736 0.821493
vt 0.908576 0.809206
vt 0.885582 0.817258
vt 0.890844 0.813841
vt 0.902395 0.809745
vt 0.896466 0.811313
vt 0.914756 0.809745
vt 0.931569 0.817258
vt 0.920685 0.811313
vt 0.926307 0.813841
vt 0.936415 0.821493
vt 0.944645 0.832139
vt 0.947919 0.838408
vt 0.950561 0.845214
vt 0.953727 0.860156
vt 0.952515 0.852487
vt 0.953727 0.876146
vt 0.947919 0.897895
vt 0.952515 0.883816
vt 0.950561 0.891088
vt 0.944645 0.904164
vt 0.936415 0.914810
vt 0.931569 0.919045
vt 0.926307 0.922462
vt 0.914756 0.926558
vt 0.920685 0.924990
vt 0.086698 0.923928
vt 0.080790 0.925491
vt 0.092301 0.921409
vt 0.074631 0.926028
vt 0.097545 0.918004
vt 0.068471 0.925491
vt 0.051716 0.918004
vt 0.062563 0.923928
vt 0.056960 0.921409
vt 0.046887 0.913783
vt 0.038685 0.903174
vt 0.029219 0.867285
vt 0.035422 0.896926
vt 0.032790 0.890143
vt 0.029634 0.875252
vt 0.030842 0.882895
vt 0.029634 0.859317
vt 0.035422 0.837644
vt 0.030842 0.851675
vt 0.032790 0.844427
vt 0.038685 0.831396
vt 0.046887 0.820787
vt 0.074631 0.808542
vt 0.051716 0.816566
vt 0.056960 0.813161
vt 0.068471 0.809079
vt 0.062563 0.810642
vt 0.080790 0.809079
vt 0.097545 0.816566
vt 0.086698 0.810642
vt 0.092301 0.813161
vt 0.102375 0.820787
vt 0.110576 0.831396
vt 0.120042 0.867285
vt 0.113839 0.837644
vt 0.116472 0.844427
vt 0.119627 0.859317
vt 0.118419 0.851675
vt 0.119627 0.875252
vt 0.113839 0.896926
vt 0.118419 0.882895
vt 0.116472 0.890143
vt 0.110576 0.903174
vt 0.106736 0.908816
vt 0.102375 0.913783
vn 0.0000 -1.0000 0.0000
vn 0.0000 1.0000 0.0000
vn 0.8286 0.0000 -0.5599
vn -0.3282 0.0000 0.9446
vn -0.2003 0.0000 -0.9797
vn 0.9446 0.0000 0.3284
vn -0.8937 0.0000 -0.4487
vn 0.3282 0.0000 0.9446
vn 0.2003 0.0000 -0.9797
vn -0.8937 0.0000 0.4487
vn 0.8937 0.0000 -0.4487
vn -0.2003 0.0000 0.9797
vn -0.3282 0.0000 -0.9446
vn 0.8937 0.0000 0.4487
vn -0.9446 0.0000 -0.3284
vn 0.2003 0.0000 0.9797
vn 0.3282 0.0000 -0.9446
vn -0.8286 0.0000 0.5599
vn 0.9446 0.0000 -0.3284
vn -0.0672 0.0000 0.9977
vn -0.4486 0.0000 -0.8937
vn 0.8286 0.0000 0.5599
vn -0.9797 0.0000 -0.2004
vn 0.0672 0.0000 0.9977
vn 0.4486 0.0000 -0.8937
vn -0.7505 0.0000 0.6608
vn 0.9797 0.0000 -0.2004
vn -0.5597 0.0000 -0.8287
vn 0.7505 0.0000 0.6608
vn -0.9977 0.0000 -0.0672
vn 0.5597 0.0000 -0.8287
vn -0.6607 0.0000 0.7507
vn 0.9977 0.0000 -0.0672
vn -0.6607 0.0000 -0.7507
vn 0.6607 0.0000 0.7507
vn -0.9977 0.0000 0.0672
vn 0.6607 0.0000 -0.7507
vn -0.5597 0.0000 0.8287
vn 0.9977 0.0000 0.0672
vn -0.7505 0.0000 -0.6608
vn 0.5597 0.0000 0.8287
vn -0.9797 0.0000 0.2004
vn 0.7505 0.0000 -0.6608
vn -0.4486 0.0000 0.8937
vn -0.0672 0.0000 -0.9977
vn 0.9797 0.0000 0.2004
vn -0.8286 0.0000 -0.5599
vn 0.4486 0.0000 0.8937
vn 0.0672 0.0000 -0.9977
vn -0.9446 0.0000 0.3284
usemtl SVGMat.008
s off
f 1/1/1 7/2/1 43/3/1
f 85/4/2 60/5/2 84/6/2
f 20/7/3 65/8/3 21/9/3
f 39/10/4 90/11/4 40/12/4
f 11/13/5 49/14/5 12/15/5
f 27/16/6 79/17/6 28/18/6
f 4/19/7 64/20/7 5/21/7
f 34/22/8 93/23/8 35/24/8
f 14/25/9 53/26/9 15/27/9
f 45/28/10 78/29/10 46/30/10
f 21/9/11 67/31/11 22/32/11
f 38/33/12 92/34/12 39/10/12
f 10/35/13 52/36/13 11/13/13
f 28/18/14 81/37/14 29/38/14
f 3/39/15 66/40/15 4/19/15
f 35/24/16 95/41/16 36/42/16
f 15/27/17 55/43/17 16/44/17
f 44/45/18 80/46/18 45/28/18
f 22/32/19 69/47/19 23/48/19
f 37/49/20 94/50/20 38/33/20
f 9/51/21 54/52/21 10/35/21
f 29/38/22 83/53/22 30/54/22
f 2/55/23 68/56/23 3/39/23
f 36/42/24 96/57/24 37/49/24
f 16/44/25 57/58/25 17/59/25
f 43/60/26 82/61/26 44/45/26
f 23/48/27 71/62/27 24/63/27
f 8/64/28 56/65/28 9/51/28
f 30/54/29 85/66/29 31/67/29
f 1/68/30 70/69/30 2/55/30
f 17/59/31 59/70/31 18/71/31
f 42/72/32 84/73/32 43/60/32
f 24/63/33 73/74/33 25/75/33
f 7/76/34 58/77/34 8/64/34
f 31/67/35 87/78/35 32/79/35
f 48/80/36 72/81/36 1/68/36
f 18/71/37 61/82/37 19/83/37
f 41/84/38 86/85/38 42/72/38
f 25/75/39 75/86/39 26/87/39
f 6/88/40 60/89/40 7/76/40
f 32/79/41 89/90/41 33/91/41
f 47/92/42 74/93/42 48/80/42
f 19/83/43 63/94/43 20/7/43
f 40/12/44 88/95/44 41/84/44
f 12/15/45 50/96/45 13/97/45
f 26/87/46 77/98/46 27/16/46
f 5/21/47 62/99/47 6/88/47
f 33/91/48 91/100/48 34/22/48
f 13/97/49 51/101/49 14/25/49
f 46/30/50 76/102/50 47/92/50
f 13/103/1 14/104/1 17/105/1
f 14/104/1 15/106/1 16/107/1
f 17/105/1 14/104/1 16/107/1
f 17/105/1 18/108/1 13/103/1
f 18/108/1 19/109/1 13/103/1
f 19/109/1 20/110/1 25/111/1
f 20/110/1 21/112/1 25/111/1
f 21/112/1 22/113/1 24/114/1
f 22/113/1 23/115/1 24/114/1
f 24/114/1 25/111/1 21/112/1
f 25/111/1 26/116/1 29/117/1
f 26/116/1 27/118/1 28/119/1
f 29/117/1 26/116/1 28/119/1
f 29/117/1 30/120/1 25/111/1
f 30/120/1 31/121/1 25/111/1
f 31/121/1 32/122/1 37/123/1
f 32/122/1 33/124/1 37/123/1
f 33/124/1 34/125/1 36/126/1
f 34/125/1 35/127/1 36/126/1
f 36/126/1 37/123/1 33/124/1
f 37/123/1 38/128/1 41/129/1
f 38/128/1 39/130/1 40/131/1
f 41/129/1 38/128/1 40/131/1
f 41/129/1 42/132/1 37/123/1
f 42/132/1 43/3/1 37/123/1
f 43/3/1 44/133/1 1/1/1
f 44/133/1 45/134/1 1/1/1
f 45/134/1 46/135/1 48/136/1
f 46/135/1 47/137/1 48/136/1
f 48/136/1 1/1/1 45/134/1
f 1/1/1 2/138/1 5/139/1
f 2/138/1 3/140/1 4/141/1
f 5/139/1 2/138/1 4/141/1
f 5/139/1 6/142/1 1/1/1
f 6/142/1 7/2/1 1/1/1
f 7/2/1 8/143/1 13/103/1
f 8/143/1 9/144/1 13/103/1
f 9/144/1 10/145/1 12/146/1
f 10/145/1 11/147/1 12/146/1
f 12/146/1 13/103/1 9/144/1
f 13/103/1 19/109/1 7/2/1
f 37/123/1 43/3/1 31/121/1
f 19/109/1 25/111/1 31/121/1
f 19/109/1 43/3/1 7/2/1
f 43/3/1 19/109/1 31/121/1
f 53/148/2 51/149/2 55/150/2
f 51/149/2 50/151/2 57/152/2
f 50/151/2 49/153/2 56/154/2
f 49/153/2 52/155/2 54/156/2
f 56/154/2 49/153/2 54/156/2
f 56/154/2 58/157/2 50/151/2
f 58/157/2 60/5/2 50/151/2
f 60/5/2 62/158/2 72/159/2
f 62/158/2 64/160/2 72/159/2
f 64/160/2 66/161/2 70/162/2
f 66/161/2 68/163/2 70/162/2
f 70/162/2 72/159/2 64/160/2
f 72/159/2 74/164/2 80/165/2
f 74/164/2 76/166/2 78/167/2
f 80/165/2 74/164/2 78/167/2
f 80/165/2 82/168/2 72/159/2
f 82/168/2 84/6/2 72/159/2
f 84/6/2 86/169/2 96/170/2
f 86/169/2 88/171/2 96/170/2
f 88/171/2 90/172/2 94/173/2
f 90/172/2 92/174/2 94/173/2
f 94/173/2 96/170/2 88/171/2
f 96/170/2 95/175/2 89/176/2
f 95/175/2 93/177/2 91/178/2
f 89/176/2 95/175/2 91/178/2
f 89/176/2 87/179/2 96/170/2
f 87/179/2 85/4/2 96/170/2
f 85/4/2 83/180/2 73/181/2
f 83/180/2 81/182/2 73/181/2
f 81/182/2 79/183/2 75/184/2
f 79/183/2 77/185/2 75/184/2
f 75/184/2 73/181/2 81/182/2
f 73/181/2 71/186/2 65/187/2
f 71/186/2 69/188/2 67/189/2
f 65/187/2 71/186/2 67/189/2
f 65/187/2 63/190/2 73/181/2
f 63/190/2 61/191/2 73/181/2
f 61/191/2 59/192/2 50/151/2
f 59/192/2 57/152/2 50/151/2
f 57/152/2 55/150/2 51/149/2
f 60/5/2 72/159/2 84/6/2
f 85/4/2 73/181/2 61/191/2
f 50/151/2 60/5/2 61/191/2
f 85/4/2 84/6/2 96/170/2
f 85/4/2 61/191/2 60/5/2
f 20/7/3 63/94/3 65/8/3
f 39/10/4 92/34/4 90/11/4
f 11/13/5 52/36/5 49/14/5
f 27/16/6 77/98/6 79/17/6
f 4/19/7 66/40/7 64/20/7
f 34/22/8 91/100/8 93/23/8
f 14/25/9 51/101/9 53/26/9
f 45/28/10 80/46/10 78/29/10
f 21/9/11 65/8/11 67/31/11
f 38/33/12 94/50/12 92/34/12
f 10/35/13 54/52/13 52/36/13
f 28/18/14 79/17/14 81/37/14
f 3/39/15 68/56/15 66/40/15
f 35/24/16 93/23/16 95/41/16
f 15/27/17 53/26/17 55/43/17
f 44/45/18 82/61/18 80/46/18
f 22/32/19 67/31/19 69/47/19
f 37/49/20 96/57/20 94/50/20
f 9/51/21 56/65/21 54/52/21
f 29/38/22 81/37/22 83/53/22
f 2/55/23 70/69/23 68/56/23
f 36/42/24 95/41/24 96/57/24
f 16/44/25 55/43/25 57/58/25
f 43/60/26 84/73/26 82/61/26
f 23/48/27 69/47/27 71/62/27
f 8/64/28 58/77/28 56/65/28
f 30/54/29 83/53/29 85/66/29
f 1/68/30 72/81/30 70/69/30
f 17/59/31 57/58/31 59/70/31
f 42/72/32 86/85/32 84/73/32
f 24/63/33 71/62/33 73/74/33
f 7/76/34 60/89/34 58/77/34
f 31/67/35 85/66/35 87/78/35
f 48/80/36 74/93/36 72/81/36
f 18/71/37 59/70/37 61/82/37
f 41/84/38 88/95/38 86/85/38
f 25/75/39 73/74/39 75/86/39
f 6/88/40 62/99/40 60/89/40
f 32/79/41 87/78/41 89/90/41
f 47/92/42 76/102/42 74/93/42
f 19/83/43 61/82/43 63/94/43
f 40/12/44 90/11/44 88/95/44
f 12/15/45 49/14/45 50/96/45
f 26/87/46 75/86/46 77/98/46
f 5/21/47 64/20/47 62/99/47
f 33/91/48 89/90/48 91/100/48
f 13/97/49 50/96/49 51/101/49
f 46/30/50 78/29/50 76/102/50
